<svg width="684" height="473" viewBox="0 0 684 473" fill="none" xmlns="http://www.w3.org/2000/svg">
<g clip-path="url(#clip0)">
<path d="M0 472.681H110.023" stroke="#3F3D56" stroke-miterlimit="10"/>
<path d="M636.678 81.4653H173.915C166.814 81.4653 161.058 87.0033 161.058 93.8348V387.298C161.058 394.129 166.814 399.667 173.915 399.667H636.678C643.779 399.667 649.535 394.129 649.535 387.298V93.8348C649.535 87.0033 643.779 81.4653 636.678 81.4653Z" fill="#F2F2F2"/>
<path d="M621.766 61.3784H159.002C151.901 61.3784 146.145 66.9164 146.145 73.7479V367.211C146.145 374.042 151.901 379.58 159.002 379.58H621.766C628.866 379.58 634.622 374.042 634.622 367.211V73.7479C634.622 66.9164 628.866 61.3784 621.766 61.3784Z" stroke="#3F3D56" stroke-miterlimit="10"/>
<path d="M146.145 91.885H634.622" stroke="#3F3D56" stroke-miterlimit="10"/>
<path opacity="0.3" d="M566.625 163.407H442.806C440.209 163.407 438.105 165.432 438.105 167.93V178.652C438.105 181.15 440.209 183.175 442.806 183.175H566.625C569.221 183.175 571.326 181.15 571.326 178.652V167.93C571.326 165.432 569.221 163.407 566.625 163.407Z" fill="black"/>
<path opacity="0.3" d="M592.142 218.247H417.288C414.692 218.247 412.587 220.272 412.587 222.77V229.667C412.587 232.164 414.692 234.189 417.288 234.189H592.142C594.738 234.189 596.843 232.164 596.843 229.667V222.77C596.843 220.272 594.738 218.247 592.142 218.247Z" fill="black"/>
<path opacity="0.3" d="M592.142 261.609H417.288C414.692 261.609 412.587 263.634 412.587 266.132V273.029C412.587 275.526 414.692 277.551 417.288 277.551H592.142C594.738 277.551 596.843 275.526 596.843 273.029V266.132C596.843 263.634 594.738 261.609 592.142 261.609Z" fill="black"/>
<path opacity="0.3" d="M592.142 304.972H417.288C414.692 304.972 412.587 306.997 412.587 309.494V316.391C412.587 318.889 414.692 320.914 417.288 320.914H592.142C594.738 320.914 596.843 318.889 596.843 316.391V309.494C596.843 306.997 594.738 304.972 592.142 304.972Z" fill="black"/>
<path d="M573.253 157.03H449.433C446.837 157.03 444.733 159.055 444.733 161.553V172.276C444.733 174.773 446.837 176.798 449.433 176.798H573.253C575.849 176.798 577.953 174.773 577.953 172.276V161.553C577.953 159.055 575.849 157.03 573.253 157.03Z" stroke="#3F3D56" stroke-miterlimit="10"/>
<path d="M598.77 211.871H423.916C421.32 211.871 419.215 213.896 419.215 216.393V223.29C419.215 225.788 421.32 227.813 423.916 227.813H598.77C601.366 227.813 603.471 225.788 603.471 223.29V216.393C603.471 213.896 601.366 211.871 598.77 211.871Z" stroke="#3F3D56" stroke-miterlimit="10"/>
<path d="M598.77 255.233H423.916C421.32 255.233 419.215 257.258 419.215 259.755V266.652C419.215 269.15 421.32 271.175 423.916 271.175H598.77C601.366 271.175 603.471 269.15 603.471 266.652V259.755C603.471 257.258 601.366 255.233 598.77 255.233Z" stroke="#3F3D56" stroke-miterlimit="10"/>
<path d="M598.77 298.595H423.916C421.32 298.595 419.215 300.62 419.215 303.118V310.014C419.215 312.512 421.32 314.537 423.916 314.537H598.77C601.366 314.537 603.471 312.512 603.471 310.014V303.118C603.471 300.62 601.366 298.595 598.77 298.595Z" stroke="#3F3D56" stroke-miterlimit="10"/>
<path opacity="0.3" d="M183.262 90.074C188.752 90.074 193.203 85.7915 193.203 80.5088C193.203 75.2261 188.752 70.9436 183.262 70.9436C177.771 70.9436 173.32 75.2261 173.32 80.5088C173.32 85.7915 177.771 90.074 183.262 90.074Z" fill="black"/>
<path opacity="0.3" d="M211.099 90.074C216.59 90.074 221.041 85.7915 221.041 80.5088C221.041 75.2261 216.59 70.9436 211.099 70.9436C205.608 70.9436 201.157 75.2261 201.157 80.5088C201.157 85.7915 205.608 90.074 211.099 90.074Z" fill="black"/>
<path opacity="0.3" d="M238.936 90.074C244.427 90.074 248.878 85.7915 248.878 80.5088C248.878 75.2261 244.427 70.9436 238.936 70.9436C233.445 70.9436 228.994 75.2261 228.994 80.5088C228.994 85.7915 233.445 90.074 238.936 90.074Z" fill="black"/>
<path d="M187.238 86.2478C192.729 86.2478 197.18 81.9653 197.18 76.6826C197.18 71.3999 192.729 67.1174 187.238 67.1174C181.748 67.1174 177.297 71.3999 177.297 76.6826C177.297 81.9653 181.748 86.2478 187.238 86.2478Z" stroke="#3F3D56" stroke-miterlimit="10"/>
<path d="M215.076 86.2478C220.566 86.2478 225.017 81.9653 225.017 76.6826C225.017 71.3999 220.566 67.1174 215.076 67.1174C209.585 67.1174 205.134 71.3999 205.134 76.6826C205.134 81.9653 209.585 86.2478 215.076 86.2478Z" stroke="#3F3D56" stroke-miterlimit="10"/>
<path d="M242.913 86.2478C248.404 86.2478 252.855 81.9653 252.855 76.6826C252.855 71.3999 248.404 67.1174 242.913 67.1174C237.422 67.1174 232.971 71.3999 232.971 76.6826C232.971 81.9653 237.422 86.2478 242.913 86.2478Z" stroke="#3F3D56" stroke-miterlimit="10"/>
<path d="M300.479 366.189C298.814 358.812 298.373 348.736 298.933 341.727C298.933 341.727 290.516 306.153 283.894 302.834L283.892 302.836C283.791 302.962 280.577 307.015 280.169 319.559C279.755 332.302 275.066 340.664 275.066 340.664C275.066 340.664 276.583 356.547 275.716 366.189L300.479 366.189Z" fill="black"/>
<path d="M361.704 139.813H208.959C206.89 139.813 204.841 140.205 202.93 140.967C201.018 141.729 199.281 142.845 197.818 144.253C196.355 145.66 195.195 147.332 194.403 149.171C193.611 151.01 193.203 152.981 193.203 154.972V351.03C193.203 353.021 193.611 354.992 194.403 356.831C195.195 358.67 196.355 360.341 197.818 361.749C199.281 363.157 201.018 364.273 202.93 365.035C204.841 365.797 206.89 366.189 208.959 366.189H262.549C260.759 359.047 258.535 347.894 260.788 340.138L260.787 340.133L260.788 340.136C260.893 339.775 261.005 339.418 261.13 339.071C262.678 334.038 263.194 328.764 262.649 323.541C263.644 319.079 263.644 314.464 262.649 310.002C260.994 302.57 259.835 295.268 259.835 295.268C259.835 295.268 258.922 285.447 259.719 279.426C259.737 279.294 259.757 279.168 259.776 279.04C259.495 278.978 259.337 278.943 259.337 278.943C259.337 278.943 261.683 268.722 262.511 262.218C262.706 260.683 262.963 258.736 263.242 256.661C262.478 256.539 261.725 256.355 260.993 256.112C253.543 253.59 251.198 230.76 251.198 230.76V223.525C251.198 223.525 248.714 212.442 257.406 207.531C265.776 202.802 269.117 201.507 269.354 201.418C269.417 201.374 269.48 201.334 269.545 201.286C270.491 200.571 271.239 199.644 271.725 198.586C271.737 198.404 271.739 198.222 271.733 198.042C271.592 195.449 269.716 193.091 267.935 191.033C266.417 189.278 264.898 187.523 263.379 185.767C262.859 185.245 262.459 184.622 262.206 183.941C262.11 183.564 262.068 183.177 262.082 182.79C262.081 182.647 262.082 182.504 262.085 182.361C262.11 181.052 262.147 179.744 262.196 178.436C262.238 177.293 262.537 175.851 263.701 175.616C264.306 175.494 265.107 175.707 265.426 175.198C265.534 174.988 265.561 174.749 265.504 174.522C265.5 174.539 265.499 174.556 265.494 174.573C265.49 174.552 265.486 174.53 265.482 174.509C265.243 173.593 265.098 172.656 265.051 171.712C265.038 171.286 265.101 170.862 265.238 170.456C265.912 168.559 268.232 167.781 270.283 167.423C272.333 167.065 274.635 166.757 275.922 165.18C276.266 164.656 276.64 164.151 277.041 163.666C277.632 163.15 278.357 162.798 279.139 162.648C281.685 162.028 284.373 162.258 286.766 163.299C287.758 163.735 288.754 164.321 289.842 164.255C290.972 164.186 291.937 163.42 293.053 163.234C294.855 162.934 296.578 164.233 297.466 165.771C298.03 166.75 298.313 167.856 298.284 168.974C298.305 170.088 297.887 171.168 297.114 171.998C296.339 172.789 295.181 173.333 294.859 174.376C294.728 174.8 294.759 175.257 294.643 175.686C294.628 175.74 294.605 175.79 294.586 175.841C294.607 175.868 294.63 175.893 294.651 175.92C296.008 177.64 296.917 179.647 297.303 181.774C297.689 183.901 297.541 186.086 296.871 188.147C296.201 190.207 295.028 192.084 293.451 193.62C291.873 195.156 289.937 196.306 287.803 196.975C287.798 197.11 287.792 197.244 287.793 197.379C287.753 198.216 287.901 199.051 288.225 199.828C288.55 200.606 289.044 201.307 289.675 201.884L301.968 206.734C301.968 206.734 309.369 205.871 312.039 216.497C312.467 218.263 312.621 220.08 312.496 221.89C312.399 223.492 312.626 226.313 314.523 229.963C317.558 235.803 316.868 249.21 310.66 250.537C304.779 251.794 302.492 251.266 302.266 251.207L302.253 251.442C302.35 253.957 303.28 275.654 306.659 278.279C307.593 279.005 307.415 279.495 306.648 279.826L306.65 279.828C306.65 279.828 306.656 279.967 306.671 280.218C306.772 281.805 307.293 287.848 309.555 291.286C312.177 295.268 311.902 318.233 311.902 318.233L313.694 331.772C313.694 331.772 312.591 340.134 313.694 341.594C314.321 342.421 315.08 355.242 315.62 366.189H361.704C365.882 366.189 369.89 364.592 372.845 361.749C375.799 358.906 377.459 355.051 377.459 351.03V154.972C377.459 152.981 377.052 151.01 376.26 149.171C375.468 147.332 374.308 145.66 372.845 144.253C371.382 142.845 369.645 141.729 367.733 140.967C365.821 140.205 363.773 139.813 361.704 139.813Z" fill="black"/>
<path d="M345.797 122.595H193.052C184.351 122.595 177.297 129.382 177.297 137.754V333.813C177.297 342.185 184.351 348.971 193.052 348.971H345.797C354.498 348.971 361.552 342.185 361.552 333.813V137.754C361.552 129.382 354.498 122.595 345.797 122.595Z" stroke="#3F3D56" stroke-miterlimit="10"/>
<path d="M66.8253 205.097C66.8253 205.097 60.6454 203.339 59.3198 205.252C57.9942 207.165 61.127 221.033 61.127 221.033L74.7446 221.829L69.9923 210.283L66.8253 205.097Z" fill="#2F2E41"/>
<path d="M19.1839 318.98C19.1839 318.98 31.5746 345.152 22.0323 344.33C12.4901 343.507 8.78717 318.98 8.78717 318.98H19.1839Z" fill="#A0616A"/>
<path d="M100.221 316.253C100.221 316.253 94.7857 344.533 103.837 341.512C112.889 338.492 110.309 313.832 110.309 313.832L100.221 316.253Z" fill="#A0616A"/>
<path d="M64.1891 198.535C64.1891 198.535 64.0466 211.689 69.3162 212.374C74.5858 213.06 66.3254 220.048 66.3254 220.048L56.9256 221.829L43.3956 220.87L37.4139 213.471C37.4139 213.471 47.953 208.675 43.3956 193.739L64.1891 198.535Z" fill="#A0616A"/>
<path opacity="0.1" d="M64.1891 198.535C64.1891 198.535 64.0466 211.689 69.3162 212.374C74.5858 213.06 66.3254 220.048 66.3254 220.048L56.9256 221.829L43.3956 220.87L37.4139 213.471C37.4139 213.471 47.953 208.675 43.3956 193.739L64.1891 198.535Z" fill="black"/>
<path d="M88.4007 309.799C88.4007 309.799 95.0945 323.639 89.8249 367.076C89.8249 367.076 91.3915 382.423 90.1097 385.3C88.828 388.178 78.2888 427.23 78.2888 427.23C78.2888 427.23 64.7587 430.107 62.9073 421.475C62.9073 421.475 64.7588 409.143 64.6163 407.224C64.4739 405.306 67.6072 384.341 67.6072 384.341L61.1982 343.782L56.3559 380.367C56.3559 380.367 56.3559 390.918 54.7892 393.248C53.2226 395.577 54.7892 442.44 54.7892 442.44C54.7892 442.44 59.2043 449.565 52.5105 449.702C45.8167 449.839 39.835 449.565 39.2653 445.043C38.6956 440.521 38.4108 435.999 36.9865 433.259C35.5623 430.518 33.7108 399.14 34.1381 388.178C34.5654 377.216 24.7383 320.898 27.8716 315.006C31.0048 309.114 88.4007 309.799 88.4007 309.799Z" fill="#2F2E41"/>
<path d="M56.9256 203.468C66.3644 203.468 74.0161 196.106 74.0161 187.025C74.0161 177.944 66.3644 170.582 56.9256 170.582C47.4867 170.582 39.835 177.944 39.835 187.025C39.835 196.106 47.4867 203.468 56.9256 203.468Z" fill="#A0616A"/>
<path d="M39.835 213.745C39.835 213.745 50.2318 221.144 65.3284 215.252C65.3284 215.252 70.3132 212.923 69.8859 209.36C69.4586 205.797 80.2827 237.998 80.2827 237.998L91.2491 294.042L90.6794 316.925C90.6794 316.925 85.8371 314.595 70.7404 319.802C55.6438 325.009 31.0049 313.91 31.0049 313.91L31.8594 255.126L32.7139 220.87L34.9927 213.334C34.9927 213.334 36.132 211.278 39.835 213.745Z" fill="#F2F2F2"/>
<path d="M64.664 204.546C64.664 204.546 67.1799 204.153 69.6011 207.853C72.0222 211.552 77.7191 213.882 77.7191 213.882C77.7191 213.882 91.5339 214.704 93.5278 221.829C95.5217 228.955 100.506 238.683 102.928 256.634C105.349 274.584 110.191 303.222 110.903 305.552C111.615 307.881 109.906 315.006 111.9 317.199C113.894 319.391 97.8005 319.391 97.8005 319.391C97.8005 319.391 96.3763 308.155 95.3793 308.155C94.3823 308.155 94.6672 315.692 95.6641 321.173C96.6611 326.654 88.4007 321.173 88.4007 321.173C88.4007 321.173 81.9917 296.097 75.8676 273.488C69.7435 250.879 66.183 238.409 67.3223 233.339C68.4616 228.269 71.5949 213.745 69.3162 212.375C67.0375 211.004 64.664 204.546 64.664 204.546Z" fill="#2F2E41"/>
<path d="M44.1256 204.534C44.1256 204.534 40.4047 206.483 31.0049 212.923C21.6051 219.363 15.1961 224.296 15.1961 224.296C15.1961 224.296 11.4932 227.036 9.21445 243.342C6.93571 259.648 1.80853 301.852 3.80244 307.196C5.79634 312.54 6.50844 315.692 5.79634 318.843C5.08423 321.995 20.7506 321.858 21.0354 321.173C21.3203 320.488 20.6081 308.018 21.3203 307.744C22.0324 307.47 25.8777 315.144 26.5898 321.584C27.3019 328.024 35.5624 333.094 37.4139 333.094C39.2654 333.094 48.8076 295.96 48.95 270.61C49.0924 245.261 45.8167 223.885 43.3956 220.87C40.9744 217.856 44.1256 204.534 44.1256 204.534Z" fill="#2F2E41"/>
<path d="M69.1738 428.463C69.1738 428.463 70.3132 425.449 74.301 426.408C78.2888 427.367 80.9948 423.941 80.9948 423.941C80.9948 423.941 83.1311 423.667 81.7069 426.271C80.2826 428.874 79.1433 430.656 79.1433 430.656C79.1433 430.656 87.6886 449.428 82.1341 453.95C76.5797 458.472 70.1707 455.731 70.1707 455.731C70.1707 455.731 63.9042 451.484 64.1891 440.248C64.1891 440.248 63.9042 436.685 60.4861 430.93C57.068 425.175 54.5044 416.405 58.6346 414.761C62.7648 413.116 63.8279 413.055 63.8279 413.055C63.8279 413.055 61.8952 421.56 66.8875 424.532L69.1738 428.463Z" fill="#3F3D56"/>
<path d="M42.6834 449.702C42.6834 449.702 39.2653 443.536 44.9622 442.851C50.659 442.166 56.7832 441.755 56.4983 444.632C56.2135 447.51 55.5013 451.895 55.5013 451.895L56.4983 455.046C56.4983 455.046 56.7832 462.857 57.7801 463.816C58.777 464.775 64.189 472.996 52.6529 472.996C41.1168 472.996 37.6987 471.763 38.6956 469.16C39.6926 466.556 39.9774 453.676 39.9774 453.676L42.6834 449.702Z" fill="#3F3D56"/>
<path d="M51.5136 173.87C51.5136 173.87 59.4891 175.926 63.6194 176.748C67.7496 177.57 67.3223 175.241 67.3223 175.241C67.3223 175.241 72.7343 175.926 72.4495 175.378C72.1646 174.829 74.7282 171.952 71.7374 168.663C68.7465 165.375 69.6011 162.908 69.6011 162.908H67.0375L66.3254 161.949H62.3376C62.3376 161.949 59.3467 160.853 51.5135 161.949C43.6803 163.045 32.9988 163.319 32.1442 167.841C31.2897 172.363 26.8746 177.981 28.4413 180.585C30.0079 183.188 38.9805 193.876 39.835 198.398C40.6895 202.92 44.6795 203.924 44.536 201.093C44.3925 198.261 40.4047 188.395 43.8228 187.984C47.2409 187.573 53.0802 179.214 51.5136 173.87Z" fill="#2F2E41"/>
<path d="M619.63 4.75537C616.805 4.90891 614.08 5.81661 611.761 7.37668C609.442 8.93676 607.62 11.0875 606.5 13.5879C603.217 21.2233 607.445 30.1923 613.79 35.7601C620.136 41.328 628.288 44.5105 635.695 48.6937C645.643 54.3125 654.582 62.1123 659.56 72.1245C664.537 82.1367 665.067 94.539 659.216 104.104C653.785 112.982 643.91 118.296 634.492 123.196" stroke="#3F3D56" stroke-miterlimit="10"/>
<path d="M627.994 10.8405C634.4 10.8405 639.593 8.4138 639.593 5.42027C639.593 2.42674 634.4 0 627.994 0C621.588 0 616.395 2.42674 616.395 5.42027C616.395 8.4138 621.588 10.8405 627.994 10.8405Z" fill="black"/>
<path d="M637.273 46.5505C643.679 46.5505 648.872 44.1238 648.872 41.1302C648.872 38.1367 643.679 35.71 637.273 35.71C630.867 35.71 625.674 38.1367 625.674 41.1302C625.674 44.1238 630.867 46.5505 637.273 46.5505Z" fill="black"/>
<path d="M616.064 52.2898C622.47 52.2898 627.663 49.863 627.663 46.8695C627.663 43.876 622.47 41.4492 616.064 41.4492C609.658 41.4492 604.465 43.876 604.465 46.8695C604.465 49.863 609.658 52.2898 616.064 52.2898Z" fill="black"/>
<path d="M649.203 82.2605C655.609 82.2605 660.802 79.8337 660.802 76.8402C660.802 73.8467 655.609 71.4199 649.203 71.4199C642.798 71.4199 637.605 73.8467 637.605 76.8402C637.605 79.8337 642.798 82.2605 649.203 82.2605Z" fill="black"/>
<path d="M672.401 82.2605C678.807 82.2605 684 79.8337 684 76.8402C684 73.8467 678.807 71.4199 672.401 71.4199C665.995 71.4199 660.802 73.8467 660.802 76.8402C660.802 79.8337 665.995 82.2605 672.401 82.2605Z" fill="black"/>
</g>
<defs>
<clipPath id="clip0">
<rect width="684" height="473" fill="white"/>
</clipPath>
</defs>
</svg>
