<svg width="36" height="36" viewBox="0 0 36 36" fill="none" xmlns="http://www.w3.org/2000/svg">
<path d="M20.0809 17.9981L30.6277 5.42624C30.8045 5.21731 30.6559 4.8999 30.3827 4.8999H27.1764C26.9876 4.8999 26.8068 4.98428 26.6822 5.12892L17.9836 15.499L9.28489 5.12892C9.16436 4.98428 8.98355 4.8999 8.7907 4.8999H5.58445C5.31123 4.8999 5.16257 5.21731 5.33936 5.42624L15.8862 17.9981L5.33936 30.57C5.29975 30.6166 5.27435 30.6735 5.26615 30.7341C5.25796 30.7947 5.26732 30.8563 5.29312 30.9118C5.31893 30.9672 5.3601 31.014 5.41173 31.0467C5.46337 31.0795 5.52332 31.0967 5.58445 31.0963H8.7907C8.97953 31.0963 9.16034 31.012 9.28489 30.8673L17.9836 20.4972L26.6822 30.8673C26.8027 31.012 26.9836 31.0963 27.1764 31.0963H30.3827C30.6559 31.0963 30.8045 30.7789 30.6277 30.57L20.0809 17.9981Z" fill="black" fill-opacity="0.65"/>
</svg>
