<svg width="646" height="540" viewBox="0 0 646 540" fill="none" xmlns="http://www.w3.org/2000/svg">
<g clip-path="url(#clip0)">
<g opacity="0.5">
<path opacity="0.5" d="M395.203 0.00732836L54.8374 134.035L269.354 540.011L609.72 405.983L395.203 0.00732836Z" fill="url(#paint0_linear)"/>
</g>
<path d="M392.449 4.7036L60.7435 135.321L270.52 532.325L602.225 401.707L392.449 4.7036Z" fill="white"/>
<path d="M303.771 26.9529L139.217 91.7505L157.399 126.16L321.953 61.3627L303.771 26.9529Z" fill="url(#paint1_linear)"/>
<path d="M203.72 25.722C191.019 30.7252 185.53 43.8824 191.464 55.1114C197.399 66.3404 212.508 71.3878 225.209 66.3845C237.91 61.3813 243.4 48.2241 237.465 36.9951C231.531 25.7661 216.421 20.7187 203.72 25.722ZM220.662 57.7832C217.989 58.9025 214.991 59.3087 212.05 58.95C209.109 58.5914 206.358 57.484 204.149 55.7695C201.94 54.0549 200.374 51.811 199.649 49.3242C198.925 46.8374 199.075 44.2206 200.082 41.8079C201.088 39.3953 202.904 37.2964 205.299 35.7792C207.694 34.262 210.558 33.3954 213.526 33.29C216.494 33.1847 219.431 33.8454 221.962 35.1877C224.493 36.53 226.503 38.4931 227.735 40.8263C228.561 42.341 229.033 43.9813 229.125 45.6536C229.216 47.3259 228.925 48.9974 228.268 50.5726C227.612 52.1478 226.602 53.5959 225.297 54.8341C223.992 56.0724 222.417 57.0767 220.662 57.7895V57.7832Z" fill="url(#paint2_linear)"/>
<path d="M302.045 27.6612L140.958 91.0938L158.34 123.99L319.428 60.5576L302.045 27.6612Z" fill="black"/>
<path d="M204.508 27.2216C200.054 28.9751 196.302 31.8294 193.726 35.4238C191.151 39.0182 189.868 43.1911 190.04 47.4148C190.212 51.6385 191.832 55.7233 194.693 59.1526C197.554 62.5819 201.53 65.2017 206.116 66.6806C210.702 68.1595 215.693 68.4312 220.458 67.4612C225.223 66.4913 229.548 64.3233 232.886 61.2314C236.224 58.1395 238.424 54.2626 239.209 50.091C239.995 45.9194 239.329 41.6404 237.297 37.7953C234.573 32.6399 229.588 28.6298 223.439 26.6469C217.29 24.664 210.481 24.8708 204.508 27.2216V27.2216ZM220.706 57.8777C218.137 58.8888 215.278 59.2196 212.491 58.8283C209.704 58.4369 207.114 57.341 205.048 55.6791C202.983 54.0172 201.535 51.8639 200.886 49.4915C200.238 47.1191 200.42 44.6341 201.408 42.3506C202.395 40.0672 204.145 38.0878 206.436 36.6629C208.727 35.2379 211.456 34.4313 214.278 34.345C217.1 34.2587 219.888 34.8967 222.289 36.1782C224.691 37.4597 226.599 39.3272 227.772 41.5446C229.342 44.5186 229.48 47.9093 228.155 50.9711C226.83 54.0329 224.15 56.5149 220.706 57.8714V57.8777Z" fill="black"/>
<path d="M181.332 165.515L110.311 193.481L142.707 254.791L213.727 226.825L181.332 165.515Z" fill="url(#paint3_linear)"/>
<path d="M245.771 286.916L174.751 314.882L207.147 376.192L278.167 348.226L245.771 286.916Z" fill="url(#paint4_linear)"/>
<path d="M179.913 168.782L114.092 194.7L144.116 251.521L209.937 225.602L179.913 168.782Z" fill="#69F0AE"/>
<path d="M243.518 289.15L177.697 315.068L207.721 371.889L273.541 345.97L243.518 289.15Z" fill="black"/>
<path d="M322.705 133.745L232.485 169.272L235.356 174.707L325.576 139.18L322.705 133.745Z" fill="#E0E0E0"/>
<path d="M385.765 118.763L236.797 177.423L239.669 182.858L388.637 124.198L385.765 118.763Z" fill="#E0E0E0"/>
<path d="M379.572 131.046L241.098 185.574L243.969 191.009L382.444 136.481L379.572 131.046Z" fill="#E0E0E0"/>
<path d="M386.313 254.119L296.093 289.646L298.964 295.08L389.184 259.554L386.313 254.119Z" fill="#E0E0E0"/>
<path d="M449.37 239.131L300.402 297.791L303.274 303.226L452.242 244.566L449.37 239.131Z" fill="#E0E0E0"/>
<path d="M443.18 251.419L304.706 305.947L307.577 311.382L446.052 256.854L443.18 251.419Z" fill="#E0E0E0"/>
<path d="M145.288 212.645L162.237 217.397L167.814 189.236L176.062 191.183L166.785 225.998L141.222 216.325L145.288 212.645Z" fill="url(#paint5_linear)"/>
<path d="M147.449 212.273L162.186 216.401L167.033 191.914L174.201 193.609L166.135 223.88L143.908 215.474L147.449 212.273Z" fill="white"/>
<path d="M211.45 333.391L226.188 337.519L231.034 313.032L238.202 314.727L230.137 344.998L207.91 336.592L211.45 333.391Z" fill="white"/>
<path d="M494.396 336.232L283.938 419.105L315.937 479.664L526.395 396.79L494.396 336.232Z" fill="#E0E0E0"/>
<path d="M463.886 384.495C455.799 382.504 447.521 382.882 444.944 390.866C444.076 393.557 443.974 397.734 440.63 399.121C435.711 401.162 429.776 397.079 425.506 395.415C417.55 392.315 409.382 394.426 404.776 400.942C402.44 404.244 401.44 408.043 400.644 411.805C400.301 413.437 400.257 415.454 399.462 416.991C397.936 419.934 393.162 419.669 390.031 419.556C389.345 419.556 388.644 419.487 387.943 419.424C390.419 416.479 391.655 412.893 391.447 409.26C391.242 403.292 386.753 396.764 378.906 397.495C371.877 398.125 366.928 403.985 367.716 409.915C368.388 414.956 372.191 418.863 377.067 421.257C374.673 422.171 372.118 422.883 369.855 423.828C368.798 424.27 367.772 424.764 366.782 425.309C359.942 422.461 350.957 421.925 344.803 424.83C341.825 426.235 344 430.413 346.993 428.995C351.679 426.784 356.847 427.338 361.745 428.743L362.154 428.869C361.67 429.405 361.243 429.976 360.877 430.577C358.11 435.215 360.877 442.55 367.607 443.054C377.096 443.753 377.541 432.927 372.388 428.617C372.169 428.435 371.95 428.258 371.716 428.088C373.848 427.199 376.154 426.532 378.191 425.782C379.965 425.133 381.654 424.322 383.228 423.362L383.593 423.444C390.841 424.862 402.155 425.303 404.761 417.722C406.995 411.144 407.206 397.174 419.25 398.465C424.163 398.988 428.192 402.246 432.864 403.425C437.046 404.502 441.886 404.546 445.317 401.887C448.149 399.694 448.784 396.455 449.653 393.431C450.098 391.868 450.536 390.003 452.01 388.887C454.675 386.877 459.076 388.062 462.047 388.793C465.295 389.587 467.178 385.302 463.886 384.495ZM369.724 437.798C368.125 439.166 366.432 438.082 365.578 436.651C364.541 434.912 364.986 433.198 366.308 431.667C366.524 431.417 366.755 431.177 367.001 430.949C370.162 432.713 372.746 435.24 369.753 437.798H369.724ZM375.33 403.771C378.614 401.137 383.191 401.717 385.147 405.334C387.104 408.951 386.242 414.055 383.498 417.243C383.134 417.662 382.731 418.054 382.293 418.415C380.38 417.863 378.612 416.992 377.089 415.851C373.205 412.826 371.008 407.237 375.359 403.752L375.33 403.771Z" fill="black"/>
<path d="M507.661 139.707L448.74 159.538C437.66 158.826 414.345 156.229 391.206 146.809C365.446 136.323 335.935 136.349 310.912 147.332C253.247 148.523 221.509 142.146 204.574 136.109L209.041 128.195L149.317 108.093L0 50.3228V287.102L52.2567 307.203L80.2865 249.155L141.843 273.731L153.66 247.807L194.077 273.699L196.829 275.697L193.041 279.093C189.567 282.26 187.632 286.455 187.632 290.817C187.632 295.178 189.567 299.373 193.041 302.54C194.722 304.074 196.747 305.296 198.994 306.131C201.241 306.966 203.661 307.397 206.107 307.397C208.553 307.397 210.973 306.966 213.22 306.131C215.466 305.296 217.492 304.074 219.173 302.54L217.1 304.431C213.626 307.598 211.69 311.793 211.69 316.154C211.69 320.516 213.626 324.711 217.1 327.878V327.878C218.781 329.412 220.806 330.634 223.053 331.469C225.3 332.304 227.72 332.735 230.166 332.735C232.612 332.735 235.032 332.304 237.279 331.469C239.525 330.634 241.551 329.412 243.232 327.878L255.203 317.134L246.984 324.507C243.51 327.674 241.574 331.869 241.574 336.23C241.574 340.592 243.51 344.787 246.984 347.954V347.954C248.665 349.488 250.69 350.71 252.937 351.545C255.183 352.38 257.604 352.811 260.05 352.811C262.496 352.811 264.916 352.38 267.163 351.545C269.409 350.71 271.435 349.488 273.116 347.954L284.933 337.349L279.963 341.81C277.534 344.023 276.181 346.954 276.181 350.002C276.181 353.05 277.534 355.982 279.963 358.194C281.137 359.265 282.551 360.118 284.12 360.701C285.689 361.284 287.379 361.584 289.087 361.584C290.795 361.584 292.485 361.284 294.054 360.701C295.622 360.118 297.037 359.265 298.211 358.194L306.095 351.124C319.635 359.662 330.591 365.894 335.957 367.507C358.315 374.199 358.315 360.796 358.315 360.796C388.177 374.193 403.111 347.4 403.111 347.4C440.441 360.796 440.441 327.298 440.441 327.298C449.769 332.881 456.499 330.323 461.2 325.408C467.602 318.741 468.383 309.333 463.989 301.784L499.668 273.321L515.099 300.555L576.655 275.98L604.685 329.624L645.963 313.713V79.4098L507.661 139.707Z" fill="url(#paint6_linear)"/>
<path d="M497.749 263.699L432.769 313.555L382.235 232.532L497.749 207.604V263.699Z" fill="#BE7C5E"/>
<path d="M187.304 132.813C187.304 132.813 208.158 157.742 331.694 151.51L403.892 244.996L452.273 291.985C459.872 299.371 460.302 310.568 452.842 318.054C448.309 322.597 441.791 324.986 432.769 319.787C432.769 319.787 432.769 350.947 396.673 338.483C396.673 338.483 382.235 363.411 353.358 350.947C353.358 350.947 353.358 363.411 331.701 357.179C310.044 350.947 194.523 269.931 194.523 269.931L143.989 238.771L187.304 132.813Z" fill="#FDA57D"/>
<path d="M447.207 163.98C447.207 163.98 416.009 163.98 385.162 151.887C357.11 140.904 324.445 142.303 298.561 156.721C277.466 168.473 259.188 187.931 259.531 220.068C259.531 220.068 287.605 244.996 317.285 195.14H338.942C338.942 195.14 359.796 257.466 418.36 251.222C476.923 244.977 490.558 238.758 490.558 238.758L447.207 163.98Z" fill="#BE7C5E"/>
<path d="M257.669 287.043L255.326 285.02C248.995 279.554 238.73 279.554 232.399 285.02L215.619 299.505C209.288 304.971 209.288 313.832 215.619 319.298L217.962 321.32C224.293 326.786 234.558 326.786 240.89 321.32L257.669 306.835C264.001 301.369 264.001 292.508 257.669 287.043Z" fill="#BE7C5E"/>
<path d="M234.4 263.499L232.057 261.476C225.726 256.011 215.461 256.011 209.13 261.476L192.35 275.962C186.019 281.427 186.019 290.289 192.35 295.754L194.693 297.777C201.024 303.243 211.289 303.243 217.62 297.777L234.4 283.291C240.732 277.826 240.732 268.965 234.4 263.499Z" fill="#BE7C5E"/>
<path d="M290.153 302.618L287.81 300.595C281.478 295.13 271.213 295.13 264.882 300.595L244.494 318.195C238.163 323.661 238.163 332.522 244.494 337.988L246.838 340.011C253.169 345.476 263.434 345.476 269.765 340.011L290.153 322.411C296.484 316.945 296.484 308.084 290.153 302.618Z" fill="#BE7C5E"/>
<path d="M307.25 324.303L305.614 322.89C301.192 319.074 294.024 319.074 289.603 322.89L276.735 333.998C272.314 337.815 272.314 344.003 276.735 347.82L278.371 349.233C282.793 353.049 289.961 353.049 294.382 349.233L307.25 338.124C311.671 334.308 311.671 328.12 307.25 324.303Z" fill="#BE7C5E"/>
<path d="M569.94 276.163L504.968 301.091L439.988 163.98L497.748 145.284L569.94 276.163Z" fill="white"/>
<path d="M79.0164 245.002L143.989 269.931L208.968 132.82L151.208 114.117L79.0164 245.002Z" fill="white"/>
<path d="M6.81767 58.0293L151.208 114.118L57.359 301.091L6.81767 282.395V58.0293Z" fill="#333333"/>
<path d="M642.139 89.1895L497.749 145.284L591.605 332.251L642.139 313.555V89.1895Z" fill="black"/>
</g>
<defs>
<linearGradient id="paint0_linear" x1="439.54" y1="472.996" x2="272.34" y2="48.3878" gradientUnits="userSpaceOnUse">
<stop stop-color="#808080" stop-opacity="0.25"/>
<stop offset="0.54" stop-color="#808080" stop-opacity="0.12"/>
<stop offset="1" stop-color="#808080" stop-opacity="0.1"/>
</linearGradient>
<linearGradient id="paint1_linear" x1="103835" y1="-34387.2" x2="102984" y2="-36547.2" gradientUnits="userSpaceOnUse">
<stop stop-color="#808080" stop-opacity="0.25"/>
<stop offset="0.54" stop-color="#808080" stop-opacity="0.12"/>
<stop offset="1" stop-color="#808080" stop-opacity="0.1"/>
</linearGradient>
<linearGradient id="paint2_linear" x1="30685.2" y1="-6831.93" x2="29501.6" y2="-9837.73" gradientUnits="userSpaceOnUse">
<stop stop-color="#808080" stop-opacity="0.25"/>
<stop offset="0.54" stop-color="#808080" stop-opacity="0.12"/>
<stop offset="1" stop-color="#808080" stop-opacity="0.1"/>
</linearGradient>
<linearGradient id="paint3_linear" x1="42057" y1="8162.08" x2="39357" y2="1305.39" gradientUnits="userSpaceOnUse">
<stop stop-color="#808080" stop-opacity="0.25"/>
<stop offset="0.54" stop-color="#808080" stop-opacity="0.12"/>
<stop offset="1" stop-color="#808080" stop-opacity="0.1"/>
</linearGradient>
<linearGradient id="paint4_linear" x1="49064.9" y1="21232" x2="46364.6" y2="14374.7" gradientUnits="userSpaceOnUse">
<stop stop-color="#808080" stop-opacity="0.25"/>
<stop offset="0.54" stop-color="#808080" stop-opacity="0.12"/>
<stop offset="1" stop-color="#808080" stop-opacity="0.1"/>
</linearGradient>
<linearGradient id="paint5_linear" x1="19302.5" y1="4892.26" x2="18579.4" y2="3056.07" gradientUnits="userSpaceOnUse">
<stop stop-color="#808080" stop-opacity="0.25"/>
<stop offset="0.54" stop-color="#808080" stop-opacity="0.12"/>
<stop offset="1" stop-color="#808080" stop-opacity="0.1"/>
</linearGradient>
<linearGradient id="paint6_linear" x1="387333" y1="193749" x2="387333" y2="32204.8" gradientUnits="userSpaceOnUse">
<stop stop-color="#808080" stop-opacity="0.25"/>
<stop offset="0.54" stop-color="#808080" stop-opacity="0.12"/>
<stop offset="1" stop-color="#808080" stop-opacity="0.1"/>
</linearGradient>
<clipPath id="clip0">
<rect width="646" height="540" fill="white"/>
</clipPath>
</defs>
</svg>
