<svg width="656" height="542" viewBox="0 0 656 542" fill="none" xmlns="http://www.w3.org/2000/svg">
<g clip-path="url(#clip0)">
<path d="M378.034 26.3793C383.661 39.4854 371.737 43.1978 358.079 50.2225C344.421 57.2473 334.2 64.9243 328.573 51.8181C322.946 38.712 318.38 12.6986 337.702 2.76087C357.69 -7.5192 372.407 13.2731 378.034 26.3793Z" fill="#2F2E41"/>
<path d="M350.167 52.1539C360.322 52.1539 368.554 43.1437 368.554 32.029C368.554 20.9143 360.322 11.9041 350.167 11.9041C340.012 11.9041 331.78 20.9143 331.78 32.029C331.78 43.1437 340.012 52.1539 350.167 52.1539Z" fill="#FFB8B8"/>
<path d="M441.26 121.279C440.623 120.369 439.987 119.476 439.343 118.608C438.512 117.477 437.677 116.382 436.835 115.322C427.305 103.285 417.169 95.7059 406.007 94.8947H405.992L405.827 94.8783L383.586 118.608L376.025 126.67L376.189 127.113L380.269 138.232H451.756C448.534 132.381 445.031 126.722 441.26 121.279V121.279Z" fill="#2F2E41"/>
<path d="M330.173 40.1312L336.755 36.746L335.838 26.3535L340.239 34.9539L343.385 33.3359L342.85 27.2736L345.417 32.2905L368.793 20.268C366.597 15.1543 362.636 11.2046 357.78 9.28783C352.924 7.37105 347.571 7.64418 342.899 10.0471L339.511 11.7895C334.839 14.1925 331.23 18.5285 329.479 23.8436C327.728 29.1587 327.977 35.0175 330.173 40.1312V40.1312Z" fill="#2F2E41"/>
<path d="M482.509 405.431H98.5848C95.3098 405.427 92.1701 404.001 89.8544 401.467C87.5387 398.932 86.2361 395.496 86.2324 391.911V139.415C86.2351 136.789 87.1893 134.271 88.8858 132.415C90.5823 130.558 92.8825 129.513 95.2817 129.51H485.656C488.096 129.513 490.436 130.576 492.162 132.465C493.888 134.354 494.859 136.915 494.861 139.586V391.911C494.858 395.496 493.555 398.932 491.239 401.467C488.924 404.001 485.784 405.427 482.509 405.431Z" fill="#F2F2F2"/>
<path d="M110.563 391.911H470.531C473.708 391.911 476.755 390.53 479.001 388.071C481.247 385.613 482.509 382.278 482.509 378.801V164.493C482.509 161.016 481.247 157.682 479.001 155.223C476.755 152.764 473.708 151.383 470.531 151.383H110.563C107.386 151.383 104.339 152.764 102.093 155.223C99.8467 157.682 98.5848 161.016 98.5848 164.493V378.801C98.5848 382.278 99.8467 385.613 102.093 388.071C104.339 390.53 107.386 391.911 110.563 391.911Z" fill="white"/>
<path d="M494.69 138.642H86.0591V131.759C86.0638 128.162 87.3718 124.715 89.6959 122.173C92.02 119.63 95.1706 118.201 98.4564 118.198H482.292C485.578 118.201 488.729 119.63 491.053 122.173C493.377 124.715 494.685 128.162 494.69 131.759V138.642Z" fill="black"/>
<path d="M108.589 131.95C110.36 131.95 111.796 130.379 111.796 128.44C111.796 126.502 110.36 124.931 108.589 124.931C106.818 124.931 105.383 126.502 105.383 128.44C105.383 130.379 106.818 131.95 108.589 131.95Z" fill="white"/>
<path d="M120.761 131.95C122.532 131.95 123.968 130.379 123.968 128.44C123.968 126.502 122.532 124.931 120.761 124.931C118.99 124.931 117.554 126.502 117.554 128.44C117.554 130.379 118.99 131.95 120.761 131.95Z" fill="white"/>
<path d="M132.933 131.95C134.704 131.95 136.139 130.379 136.139 128.44C136.139 126.502 134.704 124.931 132.933 124.931C131.162 124.931 129.726 126.502 129.726 128.44C129.726 130.379 131.162 131.95 132.933 131.95Z" fill="white"/>
<path d="M301.779 345.435H269.588C267.702 345.433 265.895 344.612 264.561 343.153C263.228 341.693 262.478 339.715 262.476 337.651V302.417C262.478 300.354 263.228 298.375 264.561 296.916C265.895 295.456 267.702 294.636 269.588 294.633H301.779C303.664 294.636 305.472 295.456 306.805 296.916C308.139 298.375 308.889 300.354 308.891 302.417V337.651C308.889 339.715 308.139 341.693 306.805 343.153C305.472 344.612 303.664 345.433 301.779 345.435V345.435ZM269.588 296.272C268.099 296.274 266.672 296.922 265.62 298.074C264.567 299.226 263.975 300.788 263.973 302.417V337.651C263.975 339.28 264.567 340.842 265.62 341.994C266.672 343.146 268.099 343.794 269.588 343.796H301.779C303.268 343.794 304.695 343.146 305.747 341.994C306.8 340.842 307.392 339.28 307.394 337.651V302.417C307.392 300.788 306.8 299.226 305.747 298.074C304.695 296.922 303.268 296.274 301.779 296.272H269.588Z" fill="#CCCCCC"/>
<path d="M295.416 335.602H275.951C275.356 335.602 274.785 335.342 274.364 334.882C273.943 334.421 273.706 333.796 273.705 333.144V306.924C273.706 306.272 273.943 305.647 274.364 305.187C274.785 304.726 275.356 304.467 275.951 304.466H290.055C290.567 304.466 291.063 304.658 291.462 305.008L296.822 309.723C297.085 309.952 297.297 310.244 297.442 310.576C297.587 310.907 297.662 311.271 297.662 311.639V333.144C297.661 333.796 297.424 334.421 297.003 334.882C296.582 335.342 296.011 335.602 295.416 335.602V335.602ZM275.951 306.105C275.753 306.105 275.563 306.191 275.422 306.345C275.282 306.499 275.203 306.707 275.203 306.924V333.144C275.203 333.361 275.282 333.57 275.422 333.723C275.563 333.877 275.753 333.963 275.951 333.964H295.416C295.614 333.963 295.804 333.877 295.945 333.723C296.085 333.57 296.164 333.361 296.164 333.144V311.639C296.165 311.516 296.14 311.395 296.091 311.284C296.043 311.174 295.972 311.077 295.885 311L290.524 306.285C290.391 306.168 290.225 306.105 290.055 306.105H275.951Z" fill="#CCCCCC"/>
<path d="M291.672 315.937H279.694C279.496 315.937 279.305 315.851 279.165 315.697C279.025 315.544 278.946 315.335 278.946 315.118C278.946 314.901 279.025 314.692 279.165 314.538C279.305 314.385 279.496 314.298 279.694 314.298H291.672C291.871 314.298 292.061 314.385 292.202 314.538C292.342 314.692 292.421 314.901 292.421 315.118C292.421 315.335 292.342 315.544 292.202 315.697C292.061 315.851 291.871 315.937 291.672 315.937Z" fill="#CCCCCC"/>
<path d="M291.672 320.854H279.694C279.496 320.854 279.305 320.767 279.165 320.614C279.025 320.46 278.946 320.251 278.946 320.034C278.946 319.817 279.025 319.608 279.165 319.455C279.305 319.301 279.496 319.215 279.694 319.215H291.672C291.871 319.215 292.061 319.301 292.202 319.455C292.342 319.608 292.421 319.817 292.421 320.034C292.421 320.251 292.342 320.46 292.202 320.614C292.061 320.767 291.871 320.854 291.672 320.854Z" fill="#CCCCCC"/>
<path d="M291.672 325.77H279.694C279.496 325.77 279.305 325.683 279.165 325.53C279.025 325.376 278.946 325.168 278.946 324.95C278.946 324.733 279.025 324.525 279.165 324.371C279.305 324.217 279.496 324.131 279.694 324.131H291.672C291.871 324.131 292.061 324.217 292.202 324.371C292.342 324.525 292.421 324.733 292.421 324.95C292.421 325.168 292.342 325.376 292.202 325.53C292.061 325.683 291.871 325.77 291.672 325.77Z" fill="#CCCCCC"/>
<path d="M378.139 345.435H345.948C344.062 345.433 342.255 344.612 340.921 343.153C339.588 341.693 338.838 339.715 338.836 337.651V302.417C338.838 300.354 339.588 298.375 340.921 296.916C342.255 295.456 344.062 294.636 345.948 294.633H378.139C380.024 294.636 381.832 295.456 383.165 296.916C384.499 298.375 385.249 300.354 385.251 302.417V337.651C385.249 339.715 384.499 341.693 383.165 343.153C381.832 344.612 380.024 345.433 378.139 345.435V345.435ZM345.948 296.272C344.459 296.274 343.032 296.922 341.98 298.074C340.927 299.226 340.335 300.788 340.333 302.417V337.651C340.335 339.28 340.927 340.842 341.98 341.994C343.032 343.146 344.459 343.794 345.948 343.796H378.139C379.627 343.794 381.055 343.146 382.107 341.994C383.16 340.842 383.752 339.28 383.754 337.651V302.417C383.752 300.788 383.16 299.226 382.107 298.074C381.055 296.922 379.627 296.274 378.139 296.272H345.948Z" fill="#CCCCCC"/>
<path d="M372.524 329.047H351.563C350.967 329.047 350.396 328.787 349.975 328.327C349.554 327.866 349.317 327.241 349.317 326.589V313.479C349.317 312.827 349.554 312.203 349.975 311.742C350.396 311.281 350.967 311.022 351.563 311.021H372.524C373.12 311.022 373.69 311.281 374.111 311.742C374.533 312.203 374.769 312.827 374.77 313.479V326.589C374.769 327.241 374.533 327.866 374.111 328.327C373.69 328.787 373.12 329.047 372.524 329.047V329.047ZM351.563 312.66C351.364 312.66 351.174 312.746 351.033 312.9C350.893 313.054 350.814 313.262 350.814 313.479V326.589C350.814 326.806 350.893 327.015 351.033 327.168C351.174 327.322 351.364 327.408 351.563 327.409H372.524C372.723 327.408 372.913 327.322 373.053 327.168C373.194 327.015 373.273 326.806 373.273 326.589V313.479C373.273 313.262 373.194 313.054 373.053 312.9C372.913 312.746 372.723 312.66 372.524 312.66H351.563Z" fill="#CCCCCC"/>
<path d="M362.043 322.196C361.623 322.196 361.21 322.068 360.853 321.825L349.668 314.174C349.5 314.059 349.381 313.875 349.337 313.663C349.292 313.452 349.326 313.229 349.432 313.045C349.537 312.861 349.704 312.73 349.898 312.681C350.091 312.632 350.294 312.669 350.462 312.784L361.647 320.435C361.766 320.516 361.904 320.559 362.044 320.559C362.184 320.559 362.321 320.516 362.44 320.435L373.624 312.784C373.793 312.669 373.996 312.632 374.189 312.681C374.382 312.73 374.55 312.861 374.655 313.045C374.76 313.229 374.794 313.452 374.75 313.663C374.706 313.875 374.586 314.059 374.418 314.174L363.234 321.825C362.877 322.068 362.464 322.197 362.043 322.196V322.196Z" fill="#CCCCCC"/>
<path d="M225.419 345.435H193.228C191.343 345.433 189.535 344.612 188.202 343.153C186.868 341.693 186.118 339.715 186.116 337.651V302.417C186.118 300.354 186.868 298.375 188.202 296.916C189.535 295.456 191.343 294.636 193.228 294.633H225.419C227.305 294.636 229.112 295.456 230.446 296.916C231.779 298.375 232.529 300.354 232.531 302.417V337.651C232.529 339.715 231.779 341.693 230.446 343.153C229.112 344.612 227.305 345.433 225.419 345.435V345.435ZM193.228 296.272C191.739 296.274 190.312 296.922 189.26 298.074C188.207 299.226 187.615 300.788 187.613 302.417V337.651C187.615 339.28 188.207 340.842 189.26 341.994C190.312 343.146 191.739 343.794 193.228 343.796H225.419C226.908 343.794 228.335 343.146 229.387 341.994C230.44 340.842 231.032 339.28 231.034 337.651V302.417C231.032 300.788 230.44 299.226 229.387 298.074C228.335 296.922 226.908 296.274 225.419 296.272H193.228Z" fill="#CCCCCC"/>
<path d="M219.804 329.047H198.843C198.247 329.047 197.676 328.787 197.255 328.327C196.834 327.866 196.598 327.241 196.597 326.589V313.479C196.598 312.827 196.834 312.203 197.255 311.742C197.676 311.281 198.247 311.022 198.843 311.021H219.804C220.4 311.022 220.971 311.281 221.392 311.742C221.813 312.203 222.05 312.827 222.05 313.479V326.589C222.05 327.241 221.813 327.866 221.392 328.327C220.971 328.787 220.4 329.047 219.804 329.047V329.047ZM198.843 312.66C198.644 312.66 198.454 312.746 198.314 312.9C198.173 313.054 198.094 313.262 198.094 313.479V326.589C198.094 326.806 198.173 327.015 198.314 327.168C198.454 327.322 198.644 327.408 198.843 327.409H219.804C220.003 327.408 220.193 327.322 220.333 327.168C220.474 327.015 220.553 326.806 220.553 326.589V313.479C220.553 313.262 220.474 313.054 220.333 312.9C220.193 312.746 220.003 312.66 219.804 312.66H198.843Z" fill="#CCCCCC"/>
<path d="M216.482 329.047H201.417C201.154 329.047 200.896 328.972 200.668 328.828C200.44 328.684 200.251 328.477 200.12 328.228C199.988 327.979 199.919 327.696 199.919 327.409C199.919 327.121 199.989 326.838 200.12 326.589L204.658 317.986C204.789 317.737 204.978 317.53 205.206 317.386C205.434 317.242 205.692 317.166 205.955 317.166C206.217 317.166 206.476 317.242 206.703 317.386C206.931 317.53 207.12 317.737 207.251 317.986L210.182 323.542L211.88 320.323C212.012 320.074 212.201 319.867 212.428 319.723C212.656 319.579 212.914 319.504 213.177 319.504C213.44 319.504 213.698 319.579 213.926 319.723C214.153 319.867 214.342 320.074 214.474 320.323L217.779 326.589C217.91 326.838 217.979 327.121 217.979 327.409C217.979 327.696 217.91 327.979 217.779 328.228C217.647 328.477 217.458 328.684 217.231 328.828C217.003 328.972 216.745 329.047 216.482 329.047H216.482ZM216.482 327.409L213.177 321.142L210.831 325.591C210.765 325.715 210.671 325.819 210.557 325.891C210.443 325.962 210.314 326 210.182 326V326C210.051 326 209.922 325.962 209.808 325.891C209.694 325.819 209.6 325.715 209.534 325.591L205.955 318.805L201.417 327.409H216.482Z" fill="#CCCCCC"/>
<path d="M217.558 317.576C218.385 317.576 219.056 316.842 219.056 315.937C219.056 315.032 218.385 314.298 217.558 314.298C216.732 314.298 216.061 315.032 216.061 315.937C216.061 316.842 216.732 317.576 217.558 317.576Z" fill="#CCCCCC"/>
<path d="M575.563 531.084L566.384 531.083L562.018 492.336L575.564 492.337L575.563 531.084Z" fill="#FFB8B8"/>
<path d="M577.903 540.821L548.31 540.82V540.41C548.31 538.754 548.607 537.115 549.186 535.585C549.765 534.056 550.614 532.666 551.683 531.495C552.753 530.325 554.023 529.396 555.42 528.762C556.818 528.129 558.316 527.803 559.828 527.803H559.829L577.904 527.804L577.903 540.821Z" fill="#2F2E41"/>
<path d="M612.994 531.084L603.816 531.083L599.45 492.336L612.995 492.337L612.994 531.084Z" fill="#FFB8B8"/>
<path d="M615.334 540.821L585.741 540.82V540.41C585.741 538.754 586.039 537.115 586.618 535.585C587.196 534.056 588.045 532.666 589.115 531.495C590.184 530.325 591.454 529.396 592.852 528.762C594.249 528.129 595.747 527.803 597.26 527.803H597.26L615.335 527.804L615.334 540.821Z" fill="#2F2E41"/>
<path d="M610.243 514.286L601.742 511.456C601.109 511.246 600.546 510.836 600.124 510.277C599.703 509.719 599.441 509.036 599.372 508.315L591.447 426.11C591.441 426.01 591.401 425.917 591.334 425.849C591.268 425.781 591.18 425.743 591.089 425.743C590.998 425.734 590.907 425.764 590.836 425.826C590.765 425.889 590.718 425.979 590.707 426.079L577.433 505.722C577.353 506.205 577.185 506.666 576.939 507.077C576.693 507.488 576.375 507.842 576.003 508.117C575.631 508.391 575.213 508.582 574.773 508.677C574.332 508.773 573.879 508.771 573.439 508.672L562.576 506.222C561.779 506.04 561.069 505.549 560.577 504.84C560.084 504.13 559.842 503.25 559.894 502.361L567.969 371.823L622.722 365.357L614.586 510.983C614.533 511.919 614.156 512.799 613.533 513.442C612.909 514.085 612.085 514.445 611.228 514.447C610.894 514.447 610.562 514.393 610.243 514.286V514.286Z" fill="#2F2E41"/>
<path d="M610.191 258.145C620.345 258.145 628.578 249.135 628.578 238.02C628.578 226.906 620.345 217.895 610.191 217.895C600.036 217.895 591.803 226.906 591.803 238.02C591.803 249.135 600.036 258.145 610.191 258.145Z" fill="#FFB8B8"/>
<path d="M567.884 372.59L579.756 290.774C580.387 286.423 581.858 282.27 584.07 278.591C586.281 274.911 589.184 271.789 592.584 269.433C595.984 267.076 599.803 265.539 603.788 264.924C607.773 264.309 611.831 264.63 615.694 265.865V265.865C622.448 268.003 628.231 272.82 631.913 279.375C635.596 285.93 636.913 293.752 635.608 301.313L623.188 374.379L567.884 372.59Z" fill="black"/>
<path d="M615.267 387.229C616.185 386.565 616.959 385.689 617.535 384.662C618.11 383.636 618.473 382.483 618.598 381.287C618.723 380.09 618.606 378.878 618.256 377.736C617.907 376.593 617.333 375.549 616.574 374.676L628.849 348.66L615.026 350.274L605.489 374.732C604.233 376.224 603.521 378.168 603.488 380.195C603.454 382.223 604.101 384.194 605.306 385.734C606.512 387.274 608.191 388.277 610.027 388.553C611.863 388.828 613.727 388.357 615.267 387.229V387.229Z" fill="#FFB8B8"/>
<path d="M617.895 370.087C617.216 369.982 616.582 369.653 616.078 369.144L611.382 364.394C610.875 363.879 610.524 363.205 610.378 362.465C610.232 361.724 610.297 360.952 610.565 360.253L619.951 335.903L618.619 287.788C618.811 286.242 619.279 284.752 619.997 283.403C620.714 282.054 621.668 280.874 622.803 279.929C623.938 278.984 625.232 278.293 626.611 277.896C627.99 277.499 629.427 277.403 630.84 277.614C632.253 277.825 633.614 278.338 634.846 279.125C636.077 279.912 637.155 280.957 638.017 282.2C638.879 283.444 639.509 284.86 639.871 286.37C640.233 287.88 640.319 289.453 640.125 290.999L642.401 321.245C643.094 330.424 640.716 339.566 635.71 346.971L621.073 368.629C620.792 369.045 620.433 369.392 620.021 369.646C619.609 369.901 619.153 370.058 618.681 370.107C618.419 370.134 618.156 370.128 617.895 370.087V370.087Z" fill="black"/>
<path d="M504.305 227.055C504.506 228.24 504.941 229.362 505.58 230.342C506.22 231.323 507.048 232.138 508.006 232.73C508.964 233.322 510.029 233.678 511.127 233.77C512.224 233.863 513.327 233.692 514.357 233.268L531.46 255.783L535.491 241.221L518.632 222.073C517.866 220.226 516.508 218.75 514.816 217.926C513.123 217.101 511.212 216.985 509.446 217.599C507.68 218.214 506.182 219.515 505.234 221.258C504.287 223.001 503.956 225.064 504.305 227.055V227.055Z" fill="#FFB8B8"/>
<path d="M517.703 236.388C518.056 235.745 518.58 235.234 519.204 234.925L525.031 232.043C525.663 231.733 526.366 231.642 527.047 231.784C527.727 231.925 528.351 232.292 528.834 232.834L545.662 251.788L586.661 269.206C587.888 270.001 588.96 271.054 589.815 272.303C590.67 273.553 591.292 274.975 591.644 276.487C591.997 278 592.074 279.573 591.871 281.118C591.667 282.664 591.188 284.15 590.459 285.492C589.731 286.834 588.768 288.005 587.625 288.94C586.483 289.874 585.183 290.553 583.801 290.937C582.418 291.321 580.98 291.404 579.569 291.179C578.158 290.955 576.8 290.428 575.575 289.629L549.241 280.131C541.248 277.25 534.483 271.289 530.205 263.357L517.69 240.16C517.45 239.714 517.298 239.217 517.244 238.703C517.191 238.188 517.237 237.667 517.379 237.173C517.458 236.898 517.567 236.635 517.703 236.388V236.388Z" fill="black"/>
<path opacity="0.1" d="M625.104 307.803L624.356 334.023L610.565 360.253L622.08 331.023L625.104 307.803Z" fill="black"/>
<path d="M608.084 241.802C606.929 241.967 605.759 241.667 604.791 240.958C603.823 240.249 603.123 239.18 602.821 237.949C602.529 236.533 601.891 235.229 600.974 234.179C600.058 233.13 598.897 232.372 597.617 231.989C594.244 231.146 590.122 232.884 587.65 230.087C587.121 229.448 586.738 228.681 586.533 227.849C586.328 227.016 586.307 226.143 586.471 225.3C586.926 222.581 588.703 220.528 590.636 218.886C594.704 215.446 599.627 213.432 604.759 213.109C607.416 213.024 610.075 213.169 612.71 213.541C615.47 213.732 618.2 214.278 620.843 215.168C623.855 216.412 626.531 218.466 628.624 221.142C630.718 223.817 632.162 227.027 632.823 230.475C633.427 233.933 633.334 237.494 632.551 240.909C631.768 244.324 630.313 247.511 628.288 250.247C625.864 253.55 622.739 256.155 619.184 257.833C618.338 258.271 617.367 258.324 616.485 257.983C614.271 257.019 614.633 254.018 615.642 252.016C616.722 249.873 618.384 247.799 617.516 245.191C617.08 243.982 616.244 242.997 615.175 242.433C612.974 241.205 610.512 241.495 608.146 241.794L608.084 241.802Z" fill="#2F2E41"/>
<path d="M498.161 253.167H270.578C267.304 253.163 264.164 251.737 261.848 249.203C259.532 246.668 258.23 243.232 258.226 239.647V186.387C258.23 182.803 259.532 179.366 261.848 176.832C264.164 174.297 267.304 172.872 270.578 172.868H498.161C501.436 172.872 504.575 174.297 506.891 176.832C509.207 179.367 510.509 182.803 510.513 186.387V239.647C510.509 243.232 509.207 246.668 506.891 249.203C504.575 251.737 501.436 253.163 498.161 253.167V253.167Z" fill="white"/>
<path d="M498.161 253.577H270.578C267.204 253.573 263.969 252.104 261.583 249.493C259.198 246.881 257.855 243.34 257.852 239.647V186.387C257.855 182.694 259.198 179.154 261.583 176.542C263.969 173.931 267.204 172.462 270.578 172.458H498.161C501.535 172.462 504.77 173.931 507.156 176.542C509.541 179.154 510.884 182.694 510.887 186.387V239.647C510.884 243.34 509.541 246.881 507.156 249.493C504.77 252.104 501.535 253.573 498.161 253.577ZM270.578 174.097C267.601 174.1 264.747 175.397 262.642 177.701C260.536 180.005 259.352 183.129 259.349 186.387V239.647C259.352 242.906 260.536 246.03 262.642 248.334C264.747 250.638 267.601 251.934 270.578 251.938H498.161C501.138 251.934 503.992 250.638 506.097 248.334C508.203 246.03 509.387 242.906 509.39 239.647V186.387C509.387 183.129 508.203 180.005 506.097 177.701C503.992 175.397 501.138 174.1 498.161 174.097H270.578Z" fill="#3F3D56"/>
<path d="M470.461 240.057H298.277C295.003 240.053 291.863 238.627 289.547 236.093C287.231 233.558 285.929 230.122 285.925 226.537V198.678C285.929 195.094 287.231 191.657 289.547 189.123C291.863 186.588 295.003 185.162 298.277 185.158H470.461C473.736 185.162 476.876 186.588 479.192 189.123C481.508 191.657 482.81 195.094 482.814 198.678V226.537C482.81 230.122 481.508 233.558 479.192 236.093C476.876 238.627 473.736 240.053 470.461 240.057V240.057Z" fill="#F2F2F2"/>
<path d="M335.331 225.041C343.489 225.041 350.103 217.803 350.103 208.873C350.103 199.944 343.489 192.705 335.331 192.705C327.172 192.705 320.559 199.944 320.559 208.873C320.559 217.803 327.172 225.041 335.331 225.041Z" fill="#FF6584"/>
<path d="M459.761 238.425L438.91 219.285L418.419 200.475C417.878 199.978 417.195 199.707 416.489 199.709C415.783 199.71 415.101 199.984 414.562 200.483L394.137 219.379L389.148 223.995L381.625 217.09L358.765 196.105C358.224 195.608 357.54 195.337 356.835 195.339C356.129 195.34 355.446 195.614 354.907 196.113L332.121 217.194L308.975 238.608C308.858 238.716 308.774 238.861 308.735 239.024C308.696 239.186 308.703 239.358 308.756 239.516C308.809 239.674 308.905 239.81 309.031 239.906C309.157 240.002 309.306 240.053 309.46 240.053L356.913 239.953L371.933 239.921L371.787 240.057L416.56 239.963L459.282 239.873C459.435 239.872 459.585 239.82 459.711 239.724C459.837 239.627 459.932 239.491 459.984 239.333C460.037 239.175 460.043 239.003 460.004 238.841C459.964 238.678 459.879 238.533 459.761 238.425Z" fill="#3F3D56"/>
<path d="M655.251 542H511.515C511.317 542 511.126 541.914 510.986 541.76C510.845 541.606 510.766 541.398 510.766 541.181C510.766 540.963 510.845 540.755 510.986 540.601C511.126 540.448 511.317 540.361 511.515 540.361H655.251C655.45 540.361 655.64 540.448 655.781 540.601C655.921 540.755 656 540.963 656 541.181C656 541.398 655.921 541.606 655.781 541.76C655.64 541.914 655.45 542 655.251 542Z" fill="#CCCCCC"/>
<path d="M452.212 108.087C451.614 107.023 450.825 106.104 449.891 105.386C448.958 104.667 447.901 104.165 446.785 103.908C446.376 103.814 445.96 103.756 445.542 103.736L388.504 47.9194C387.384 46.659 385.889 45.8775 384.289 45.7153C383.974 45.6756 383.656 45.6646 383.339 45.6825C382.023 45.748 380.753 46.2317 379.684 47.0746C378.615 47.9174 377.794 49.0829 377.32 50.4285C376.847 51.7741 376.742 53.2415 377.019 54.6512C377.295 56.061 377.941 57.3521 378.877 58.3666L400.714 79.2035L436.573 113.413C436.603 114.057 436.691 114.697 436.835 115.322C437.265 117.134 438.187 118.76 439.48 119.984C440.773 121.209 442.375 121.975 444.075 122.18C445.625 122.378 447.195 122.094 448.604 121.361C449.721 120.789 450.712 119.959 451.509 118.927C451.591 118.821 451.666 118.722 451.741 118.608C452.788 117.115 453.393 115.308 453.478 113.428C453.562 111.548 453.121 109.685 452.212 108.087H452.212Z" fill="#FFB8B8"/>
<path d="M354.651 161.879L354.12 138.232L353.671 118.608L353.364 104.875L352.757 78.1055C352.637 76.6723 352.139 75.3083 351.322 74.18C350.506 73.0518 349.407 72.208 348.16 71.7519C346.913 71.2957 345.571 71.2468 344.299 71.6112C343.027 71.9756 341.879 72.7374 340.996 73.8038C340.788 74.0474 340.6 74.3106 340.435 74.5904C339.513 76.0352 339.098 77.7953 339.267 79.5477L340.6 118.608L341.266 138.232L342.119 163.264C341.873 163.632 341.651 164.018 341.453 164.419C340.921 165.524 340.599 166.736 340.508 167.981C340.416 169.227 340.557 170.479 340.922 171.663C341.302 172.904 341.918 174.043 342.73 175.005C343.542 175.967 344.53 176.73 345.631 177.243C346.731 177.756 347.919 178.008 349.115 177.983C350.311 177.957 351.488 177.655 352.57 177.095C353.826 176.445 354.917 175.467 355.745 174.246C356.574 173.025 357.115 171.599 357.321 170.095C357.526 168.591 357.39 167.055 356.925 165.622C356.459 164.189 355.678 162.904 354.651 161.879H354.651Z" fill="#FFB8B8"/>
<path d="M406.007 94.8947L400.714 79.2035L392.15 53.7862C391.532 51.9369 390.542 50.2636 389.252 48.8905C387.962 47.5174 386.407 46.4798 384.701 45.8546C384.566 45.8054 384.424 45.7563 384.289 45.7153C382.637 45.1663 380.895 45.0153 379.184 45.2727C377.473 45.5301 375.834 46.1898 374.378 47.2065L345.533 67.2323C342.891 69.0621 341.003 71.9441 340.267 75.2696C339.531 78.5951 340.004 82.1036 341.588 85.0539C345.195 91.8808 349.126 98.4968 353.364 104.875C356.725 109.881 362.984 110.414 364.069 118.608H385.337L406.868 97.4512L406.007 94.8947Z" fill="#CCCCCC"/>
<path d="M75.7345 286.665C85.3149 286.665 93.0814 278.164 93.0814 267.678C93.0814 257.192 85.3149 248.692 75.7345 248.692C66.1541 248.692 58.3876 257.192 58.3876 267.678C58.3876 278.164 66.1541 286.665 75.7345 286.665Z" fill="#A0616A"/>
<path d="M118.321 254.609C118.492 254.758 118.658 254.916 118.818 255.082C119.615 255.904 120.245 256.901 120.665 258.007C121.086 259.113 121.288 260.305 121.258 261.502C121.229 262.7 120.968 263.878 120.494 264.958C120.02 266.038 119.342 266.996 118.506 267.769C118.311 267.949 118.108 268.116 117.897 268.272L119.071 311.654C119.104 313.074 118.719 314.469 117.971 315.63C117.223 316.791 116.153 317.657 114.92 318.1L114.848 318.117L82.6658 321.868C81.7909 321.97 80.9062 321.881 80.0628 321.607C79.2194 321.332 78.434 320.878 77.7521 320.269C77.0701 319.661 76.505 318.91 76.0895 318.061C75.6739 317.213 75.4161 316.282 75.331 315.323C75.2458 314.365 75.335 313.397 75.5934 312.477C75.8517 311.556 76.2742 310.701 76.8363 309.96C77.3984 309.219 78.089 308.607 78.8683 308.16C79.6476 307.713 80.5001 307.439 81.3766 307.355L104.318 305.143L108.285 267.574C108.026 267.322 107.783 267.051 107.558 266.763C106.314 265.151 105.661 263.091 105.727 260.983C105.793 258.875 106.572 256.868 107.914 255.354C109.255 253.839 111.063 252.924 112.987 252.786C114.91 252.649 116.811 253.298 118.321 254.609H118.321Z" fill="#A0616A"/>
<path d="M104.305 531.923H112.964L117.083 495.367H104.303L104.305 531.923Z" fill="#A0616A"/>
<path d="M102.096 528.828L119.148 528.828H119.149C120.576 528.828 121.989 529.135 123.308 529.733C124.626 530.331 125.824 531.207 126.833 532.311C127.843 533.416 128.643 534.727 129.189 536.17C129.735 537.613 130.016 539.16 130.016 540.722V541.108L102.097 541.109L102.096 528.828Z" fill="#2F2E41"/>
<path d="M18.241 518.819L25.6809 523.667L46.3078 494.565L35.3269 487.41L18.241 518.819Z" fill="#A0616A"/>
<path d="M17.7896 514.924L32.4414 524.472L32.442 524.472C33.6682 525.272 34.7386 526.327 35.592 527.579C36.4455 528.831 37.0653 530.255 37.416 531.769C37.7668 533.283 37.8417 534.857 37.6363 536.403C37.431 537.949 36.9496 539.435 36.2194 540.777L36.0388 541.109L12.0494 525.476L17.7896 514.924Z" fill="#2F2E41"/>
<path d="M115.007 519.011H105.311C104.526 519.013 103.768 518.695 103.184 518.121C102.601 517.546 102.232 516.755 102.151 515.9L92.3757 415.331C92.351 415.078 92.2509 414.841 92.0909 414.656C91.9308 414.471 91.7196 414.349 91.49 414.309C91.2603 414.269 91.0249 414.312 90.8201 414.433C90.6152 414.553 90.4523 414.744 90.3565 414.976L72.7223 457.714L41.5019 513.435C41.0978 514.149 40.4722 514.68 39.7396 514.931C39.007 515.181 38.2164 515.135 37.5126 514.8L25.0403 508.793C24.6279 508.595 24.2588 508.302 23.9575 507.936C23.6562 507.569 23.4295 507.136 23.2925 506.667C23.1556 506.197 23.1114 505.7 23.163 505.21C23.2146 504.72 23.3608 504.248 23.5918 503.825L52.292 451.227L61.094 406.91C58.3257 387.692 70.1936 359.119 70.314 358.832L70.3728 358.692L103.063 344.707L103.227 344.927C116.12 391.233 123.976 441.067 118.175 515.824C118.103 516.691 117.739 517.498 117.154 518.088C116.568 518.677 115.802 519.006 115.007 519.011V519.011Z" fill="#2F2E41"/>
<path d="M69.0557 363.375L68.9035 363.025C68.8307 362.857 61.5617 346.077 55.9582 328.142C54.8813 324.674 54.4742 320.999 54.7627 317.35C55.0512 313.7 56.0289 310.156 57.6341 306.942C59.2601 303.695 61.4846 300.852 64.1666 298.595C66.8487 296.337 69.9299 294.714 73.215 293.828V293.828C78.918 292.332 84.9223 293.128 90.134 296.072C95.3456 299.015 99.4178 303.909 101.609 309.864C106.053 322.029 104.637 335.014 103.304 345.226L103.277 345.43L103.107 345.52L69.0557 363.375Z" fill="#3F3D56"/>
<path d="M96.7671 256.953H69.2223V243.812C75.2681 241.183 81.1842 238.947 84.7604 243.812C87.9448 243.812 90.9987 245.196 93.2504 247.661C95.5021 250.125 96.7671 253.468 96.7671 256.953V256.953Z" fill="#2F2E41"/>
<path d="M67.6973 241.492C51.2305 241.492 46.6214 264.084 46.6214 276.829C46.6214 283.936 49.5583 286.479 54.1732 287.339L55.803 277.825L59.6203 287.748C60.9166 287.755 62.2785 287.728 63.6903 287.699L64.9846 284.782L67.8708 287.647C79.4302 287.666 88.7729 289.51 88.7729 276.829C88.7729 264.084 84.7307 241.492 67.6973 241.492Z" fill="#2F2E41"/>
<path d="M144.485 542H0.748622C0.550074 542 0.359658 541.914 0.219263 541.76C0.0788685 541.606 -3.8147e-06 541.398 -3.8147e-06 541.181C-3.8147e-06 540.963 0.0788685 540.755 0.219263 540.601C0.359658 540.448 0.550074 540.361 0.748622 540.361H144.485C144.683 540.361 144.874 540.448 145.014 540.601C145.155 540.755 145.233 540.963 145.233 541.181C145.233 541.398 145.155 541.606 145.014 541.76C144.874 541.914 144.683 542 144.485 542Z" fill="#CCCCCC"/>
<path d="M147.188 272.423H114.997C113.111 272.42 111.303 271.6 109.97 270.14C108.637 268.681 107.887 266.702 107.885 264.639V229.405C107.887 227.341 108.637 225.363 109.97 223.903C111.303 222.444 113.111 221.623 114.997 221.621H147.188C149.073 221.623 150.881 222.444 152.214 223.903C153.547 225.363 154.297 227.341 154.3 229.405V264.639C154.297 266.702 153.547 268.681 152.214 270.14C150.881 271.6 149.073 272.42 147.188 272.423V272.423Z" fill="white"/>
<path d="M147.188 272.423H114.997C113.111 272.42 111.303 271.6 109.97 270.14C108.637 268.681 107.887 266.702 107.885 264.639V229.405C107.887 227.341 108.637 225.363 109.97 223.903C111.303 222.444 113.111 221.623 114.997 221.621H147.188C149.073 221.623 150.881 222.444 152.214 223.903C153.547 225.363 154.297 227.341 154.3 229.405V264.639C154.297 266.702 153.547 268.681 152.214 270.14C150.881 271.6 149.073 272.42 147.188 272.423V272.423ZM114.997 223.26C113.508 223.262 112.081 223.91 111.028 225.062C109.976 226.214 109.384 227.776 109.382 229.405V264.639C109.384 266.268 109.976 267.83 111.028 268.982C112.081 270.134 113.508 270.782 114.997 270.784H147.188C148.676 270.782 150.103 270.134 151.156 268.982C152.209 267.83 152.801 266.268 152.802 264.639V229.405C152.801 227.776 152.209 226.214 151.156 225.062C150.103 223.91 148.676 223.262 147.188 223.26H114.997Z" fill="#3F3D56"/>
<path d="M141.573 258.084H120.611C120.016 258.083 119.445 257.824 119.024 257.363C118.603 256.902 118.366 256.277 118.365 255.625V238.418C118.366 237.767 118.603 237.142 119.024 236.681C119.445 236.22 120.016 235.961 120.611 235.96H126.512C126.896 235.959 127.274 236.065 127.609 236.27C127.944 236.475 128.225 236.771 128.425 237.13L130.071 240.057H141.573C142.168 240.058 142.739 240.317 143.16 240.778C143.581 241.239 143.818 241.864 143.819 242.515V255.625C143.818 256.277 143.581 256.902 143.16 257.363C142.739 257.824 142.168 258.083 141.573 258.084V258.084Z" fill="black"/>
<path d="M140.891 266.776C140.996 266.986 141.093 267.202 141.181 267.424C141.624 268.52 141.851 269.706 141.846 270.904C141.842 272.102 141.606 273.286 141.154 274.377C140.702 275.469 140.044 276.443 139.224 277.237C138.404 278.031 137.44 278.627 136.396 278.984C136.152 279.067 135.906 279.135 135.656 279.189L121.358 319.67C120.885 320.993 120.035 322.114 118.934 322.867C117.833 323.62 116.54 323.964 115.246 323.848L115.174 323.833L84.1838 313.622C83.3412 313.344 82.5572 312.887 81.8772 312.276C81.1971 311.665 80.6343 310.912 80.2215 310.061C79.8086 309.211 79.5538 308.279 79.4717 307.32C79.3896 306.362 79.4819 305.394 79.7433 304.475C80.0047 303.555 80.4299 302.701 80.9945 301.962C81.5591 301.224 82.2517 300.615 83.0326 300.171C83.8134 299.726 84.6668 299.456 85.5437 299.375C86.4205 299.294 87.3033 299.404 88.1411 299.698L110.069 307.404L127.045 274.463C126.895 274.121 126.767 273.768 126.662 273.406C126.087 271.393 126.216 269.218 127.024 267.302C127.832 265.387 129.262 263.869 131.035 263.043C132.808 262.217 134.799 262.141 136.62 262.831C138.442 263.521 139.964 264.927 140.891 266.776H140.891Z" fill="#A0616A"/>
</g>
<defs>
<clipPath id="clip0">
<rect width="656" height="542" fill="white"/>
</clipPath>
</defs>
</svg>
