<svg width="36" height="36" viewBox="0 0 36 36" fill="none" xmlns="http://www.w3.org/2000/svg">
<path d="M17.999 9.75369C13.4387 9.75369 9.75834 13.434 9.75834 17.9943C9.75834 22.5546 13.4387 26.2349 17.999 26.2349C22.5592 26.2349 26.2396 22.5546 26.2396 17.9943C26.2396 13.434 22.5592 9.75369 17.999 9.75369ZM17.999 23.3501C15.0499 23.3501 12.6432 20.9434 12.6432 17.9943C12.6432 15.0452 15.0499 12.6385 17.999 12.6385C20.9481 12.6385 23.3548 15.0452 23.3548 17.9943C23.3548 20.9434 20.9481 23.3501 17.999 23.3501ZM26.5771 7.49566C25.5124 7.49566 24.6525 8.35548 24.6525 9.42021C24.6525 10.4849 25.5124 11.3448 26.5771 11.3448C27.6418 11.3448 28.5016 10.489 28.5016 9.42021C28.502 9.16738 28.4524 8.91698 28.3558 8.68334C28.2592 8.4497 28.1174 8.23741 27.9387 8.05864C27.7599 7.87986 27.5476 7.73811 27.314 7.64151C27.0803 7.5449 26.8299 7.49534 26.5771 7.49566ZM34.0624 17.9943C34.0624 15.7765 34.0825 13.5787 33.9579 11.3649C33.8333 8.79342 33.2467 6.51128 31.3664 4.63092C29.482 2.74655 27.2039 2.16396 24.6325 2.03941C22.4146 1.91485 20.2168 1.93494 18.003 1.93494C15.7851 1.93494 13.5874 1.91485 11.3735 2.03941C8.80209 2.16396 6.51995 2.75057 4.63959 4.63092C2.75522 6.5153 2.17263 8.79342 2.04807 11.3649C1.92352 13.5827 1.94361 15.7805 1.94361 17.9943C1.94361 20.2082 1.92352 22.4099 2.04807 24.6238C2.17263 27.1952 2.75923 29.4774 4.63959 31.3577C6.52397 33.2421 8.80209 33.8247 11.3735 33.9492C13.5914 34.0738 15.7891 34.0537 18.003 34.0537C20.2208 34.0537 22.4186 34.0738 24.6325 33.9492C27.2039 33.8247 29.486 33.2381 31.3664 31.3577C33.2508 29.4733 33.8333 27.1952 33.9579 24.6238C34.0865 22.4099 34.0624 20.2122 34.0624 17.9943ZM30.5266 27.4684C30.2333 28.1997 29.8798 28.7461 29.3133 29.3086C28.7467 29.8751 28.2043 30.2287 27.4731 30.522C25.3597 31.3617 20.3414 31.1729 17.999 31.1729C15.6566 31.1729 10.6342 31.3617 8.52084 30.526C7.78959 30.2327 7.24316 29.8791 6.68066 29.3126C6.11414 28.7461 5.76057 28.2037 5.46727 27.4724C4.63156 25.355 4.82039 20.3367 4.82039 17.9943C4.82039 15.6519 4.63156 10.6296 5.46727 8.51619C5.76057 7.78494 6.11414 7.23851 6.68066 6.67601C7.24718 6.11351 7.78959 5.75592 8.52084 5.46262C10.6342 4.62691 15.6566 4.81574 17.999 4.81574C20.3414 4.81574 25.3637 4.62691 27.4771 5.46262C28.2083 5.75592 28.7548 6.1095 29.3173 6.67601C29.8838 7.24253 30.2374 7.78494 30.5307 8.51619C31.3664 10.6296 31.1775 15.6519 31.1775 17.9943C31.1775 20.3367 31.3664 25.355 30.5266 27.4684Z" fill="black"/>
</svg>
