<svg width="47" height="53" viewBox="0 0 47 53" fill="none" xmlns="http://www.w3.org/2000/svg">
<path d="M10.1921 27.9894L33.8389 48.8167C33.9007 48.8716 33.975 48.9057 34.0532 48.9151C34.1314 48.9245 34.2104 48.9088 34.281 48.8699C34.3517 48.831 34.4112 48.7704 34.4527 48.6951C34.4942 48.6197 34.516 48.5327 34.5156 48.444V43.8716C34.5156 43.5818 34.395 43.3038 34.1956 43.1263L15.3117 26.4987L34.1956 9.87117C34.4002 9.69371 34.5156 9.4157 34.5156 9.12585V4.55342C34.5156 4.1571 34.1117 3.93824 33.8389 4.18077L10.1921 25.0081C9.99109 25.1849 9.8285 25.411 9.71667 25.6693C9.60484 25.9276 9.54671 26.2113 9.54671 26.4987C9.54671 26.7862 9.60484 27.0698 9.71667 27.3281C9.8285 27.5864 9.99109 27.8126 10.1921 27.9894Z" fill="black"/>
</svg>
