<svg width="159" height="24" viewBox="0 0 159 24" fill="none" xmlns="http://www.w3.org/2000/svg">
<path d="M8.9 7.7L7.49 12.26H12.2L10.79 7.7C10.71 7.52 10.62 7.39 10.52 7.31C10.44 7.23 10.34 7.19 10.22 7.19H9.47C9.35 7.19 9.24 7.23 9.14 7.31C9.06 7.39 8.98 7.52 8.9 7.7ZM7.19 21.92C7.19 22.3 7.1 22.58 6.92 22.76C6.76 22.92 6.49 23 6.11 23H1.7C1.32 23 1.04 22.92 0.86 22.76C0.7 22.58 0.62 22.3 0.62 21.92V14C0.62 13.4 0.71 12.71 0.89 11.93C1.09 11.15 1.39 10.24 1.79 9.2L4.4 2.39C4.52 2.05 4.7 1.8 4.94 1.64C5.2 1.48 5.53 1.4 5.93 1.4H14C14.38 1.4 14.69 1.48 14.93 1.64C15.19 1.8 15.38 2.05 15.5 2.39L18.11 9.2C18.51 10.24 18.8 11.15 18.98 11.93C19.18 12.71 19.28 13.4 19.28 14V21.92C19.28 22.3 19.19 22.58 19.01 22.76C18.85 22.92 18.58 23 18.2 23H13.67C13.27 23 12.97 22.92 12.77 22.76C12.59 22.58 12.5 22.3 12.5 21.92V17.72H7.19V21.92ZM39.3341 23H24.0641C23.6841 23 23.4041 22.92 23.2241 22.76C23.0641 22.58 22.9841 22.3 22.9841 21.92V2.48C22.9841 2.1 23.0641 1.83 23.2241 1.67C23.4041 1.49 23.6841 1.4 24.0641 1.4H28.7141C29.0941 1.4 29.3641 1.49 29.5241 1.67C29.7041 1.83 29.7941 2.1 29.7941 2.48V17.33H33.9041V12.47C33.9041 12.09 33.9841 11.82 34.1441 11.66C34.3241 11.48 34.6041 11.39 34.9841 11.39H39.3341C39.7141 11.39 39.9841 11.48 40.1441 11.66C40.3241 11.82 40.4141 12.09 40.4141 12.47V21.92C40.4141 22.3 40.3241 22.58 40.1441 22.76C39.9841 22.92 39.7141 23 39.3341 23ZM49.5734 23H44.9234C44.5434 23 44.2634 22.92 44.0834 22.76C43.9234 22.58 43.8434 22.3 43.8434 21.92V2.48C43.8434 2.1 43.9234 1.83 44.0834 1.67C44.2634 1.49 44.5434 1.4 44.9234 1.4H54.1034C56.8234 1.4 58.6834 1.94 59.6834 3.02C60.6834 4.1 61.1834 5.51 61.1834 7.25V11.09C61.1834 12.83 60.6834 14.24 59.6834 15.32C58.6834 16.4 56.8234 16.94 54.1034 16.94H50.6534V21.92C50.6534 22.3 50.5634 22.58 50.3834 22.76C50.2234 22.92 49.9534 23 49.5734 23ZM50.5934 7.01V11.54H53.2934C53.8734 11.54 54.2534 11.39 54.4334 11.09C54.6134 10.79 54.7034 10.45 54.7034 10.07V8.48C54.7034 8.1 54.6134 7.76 54.4334 7.46C54.2534 7.16 53.8734 7.01 53.2934 7.01H50.5934ZM82.5927 17.33C82.5927 18.25 82.4527 19.09 82.1727 19.85C81.9127 20.59 81.4327 21.23 80.7327 21.77C80.0527 22.29 79.1027 22.7 77.8827 23C76.6827 23.3 75.1527 23.45 73.2927 23.45C71.4327 23.45 69.8927 23.3 68.6727 23C67.4527 22.7 66.4927 22.29 65.7927 21.77C65.1127 21.23 64.6327 20.59 64.3527 19.85C64.0927 19.09 63.9627 18.25 63.9627 17.33V7.1C63.9627 6.18 64.0927 5.35 64.3527 4.61C64.6327 3.85 65.1127 3.2 65.7927 2.66C66.4927 2.12 67.4527 1.7 68.6727 1.4C69.8927 1.1 71.4327 0.95 73.2927 0.95C75.1527 0.95 76.6827 1.1 77.8827 1.4C79.1027 1.7 80.0527 2.12 80.7327 2.66C81.4327 3.2 81.9127 3.85 82.1727 4.61C82.4527 5.35 82.5927 6.18 82.5927 7.1V17.33ZM70.7727 16.25C70.7727 16.65 70.9227 16.99 71.2227 17.27C71.5227 17.53 72.2127 17.66 73.2927 17.66C74.3727 17.66 75.0627 17.53 75.3627 17.27C75.6627 16.99 75.8127 16.65 75.8127 16.25V8.18C75.8127 7.8 75.6627 7.48 75.3627 7.22C75.0627 6.94 74.3727 6.8 73.2927 6.8C72.2127 6.8 71.5227 6.94 71.2227 7.22C70.9227 7.48 70.7727 7.8 70.7727 8.18V16.25ZM93.1318 23H87.0718C86.6918 23 86.4118 22.92 86.2318 22.76C86.0718 22.58 85.9918 22.3 85.9918 21.92V15.83C85.9918 15.45 86.0718 15.18 86.2318 15.02C86.4118 14.84 86.6918 14.75 87.0718 14.75H93.1318C93.5118 14.75 93.7818 14.84 93.9418 15.02C94.1218 15.18 94.2118 15.45 94.2118 15.83V21.92C94.2118 22.3 94.1218 22.58 93.9418 22.76C93.7818 22.92 93.5118 23 93.1318 23ZM109.115 23H99.0055C98.6255 23 98.3455 22.92 98.1655 22.76C98.0055 22.58 97.9255 22.3 97.9255 21.92V2.48C97.9255 2.1 98.0055 1.83 98.1655 1.67C98.3455 1.49 98.6255 1.4 99.0055 1.4H109.115C111.615 1.4 113.465 1.9 114.665 2.9C115.885 3.9 116.495 5.44 116.495 7.52V16.88C116.495 18.96 115.885 20.5 114.665 21.5C113.465 22.5 111.615 23 109.115 23ZM104.735 7.13V17.33H108.305C108.785 17.33 109.135 17.21 109.355 16.97C109.595 16.73 109.715 16.36 109.715 15.86V8.57C109.715 8.07 109.595 7.71 109.355 7.49C109.135 7.25 108.785 7.13 108.305 7.13H104.735ZM135.308 23H121.388C121.008 23 120.728 22.92 120.548 22.76C120.388 22.58 120.308 22.3 120.308 21.92V2.48C120.308 2.1 120.388 1.83 120.548 1.67C120.728 1.49 121.008 1.4 121.388 1.4H135.308C135.688 1.4 135.958 1.49 136.118 1.67C136.298 1.83 136.388 2.1 136.388 2.48V5.99C136.388 6.37 136.298 6.65 136.118 6.83C135.958 6.99 135.688 7.07 135.308 7.07H127.028V9.38H132.878C133.258 9.38 133.528 9.47 133.688 9.65C133.868 9.81 133.958 10.08 133.958 10.46V13.67C133.958 14.05 133.868 14.33 133.688 14.51C133.528 14.67 133.258 14.75 132.878 14.75H127.028V17.33H135.308C135.688 17.33 135.958 17.42 136.118 17.6C136.298 17.76 136.388 18.03 136.388 18.41V21.92C136.388 22.3 136.298 22.58 136.118 22.76C135.958 22.92 135.688 23 135.308 23ZM152.717 23H144.917C144.537 23 144.217 22.93 143.957 22.79C143.717 22.65 143.527 22.39 143.387 22.01L140.447 14.66C140.267 14.22 140.117 13.84 139.997 13.52C139.877 13.18 139.777 12.86 139.697 12.56C139.617 12.26 139.557 11.95 139.517 11.63C139.497 11.29 139.487 10.88 139.487 10.4V2.48C139.487 2.1 139.567 1.83 139.727 1.67C139.907 1.49 140.187 1.4 140.567 1.4H145.337C145.717 1.4 146.007 1.49 146.207 1.67C146.407 1.83 146.507 2.1 146.507 2.48V10.76C146.507 10.96 146.527 11.16 146.567 11.36C146.607 11.56 146.667 11.77 146.747 11.99L148.157 16.19C148.217 16.39 148.287 16.53 148.367 16.61C148.447 16.67 148.567 16.7 148.727 16.7H149.057C149.217 16.7 149.337 16.67 149.417 16.61C149.497 16.53 149.567 16.39 149.627 16.19L151.037 11.96C151.117 11.74 151.177 11.53 151.217 11.33C151.257 11.13 151.277 10.93 151.277 10.73V2.48C151.277 2.1 151.357 1.83 151.517 1.67C151.697 1.49 151.977 1.4 152.357 1.4H157.067C157.447 1.4 157.717 1.49 157.877 1.67C158.057 1.83 158.147 2.1 158.147 2.48V10.4C158.147 10.88 158.127 11.29 158.087 11.63C158.067 11.95 158.017 12.26 157.937 12.56C157.857 12.86 157.757 13.18 157.637 13.52C157.517 13.84 157.367 14.22 157.187 14.66L154.247 22.01C154.107 22.39 153.907 22.65 153.647 22.79C153.407 22.93 153.097 23 152.717 23Z" fill="black"/>
</svg>
