<svg width="61" height="72" viewBox="0 0 61 72" fill="none" xmlns="http://www.w3.org/2000/svg">
<path d="M30.5 72C29.5528 72 28.6687 71.7354 27.8478 71.2724L19.4493 66.0469C18.1863 65.3192 18.8178 65.0547 19.1967 64.9224C20.9017 64.3271 21.2174 64.1948 22.9855 63.1364C23.1749 63.0041 23.4275 63.0703 23.617 63.2026L30.058 67.2375C30.3106 67.3698 30.6263 67.3698 30.8157 67.2375L56.0114 51.9577C56.264 51.8254 56.3903 51.5609 56.3903 51.2301V20.7368C56.3903 20.4061 56.264 20.1415 56.0114 20.0092L30.8157 4.79559C30.5631 4.6633 30.2474 4.6633 30.058 4.79559L4.86232 20.0092C4.60973 20.1415 4.48344 20.4722 4.48344 20.7368V51.2301C4.48344 51.4947 4.60973 51.8254 4.86232 51.9577L11.7453 56.1249C15.471 58.1093 17.8075 55.7942 17.8075 53.4791V23.3826C17.8075 22.9858 18.1232 22.5889 18.5652 22.5889H21.7857C22.1646 22.5889 22.5435 22.9196 22.5435 23.3826V53.4791C22.5435 58.7046 19.8282 61.7474 15.0921 61.7474C13.6398 61.7474 12.5031 61.7474 9.28261 60.0937L2.65217 56.1249C1.01035 55.1328 0 53.2807 0 51.2963V20.8029C0 18.8186 1.01035 16.9665 2.65217 15.9743L27.8478 0.694533C29.4265 -0.231511 31.5735 -0.231511 33.1522 0.694533L58.3478 15.9743C59.9896 16.9665 61 18.8186 61 20.8029V51.2963C61 53.2807 59.9896 55.1328 58.3478 56.1249L33.1522 71.4047C32.3313 71.8016 31.3841 72 30.5 72ZM38.2671 51.0317C27.2164 51.0317 24.9431 45.74 24.9431 41.2421C24.9431 40.8452 25.2588 40.4483 25.7008 40.4483H28.9845C29.3634 40.4483 29.6791 40.7129 29.6791 41.1098C30.1843 44.6155 31.6366 46.3353 38.3302 46.3353C43.6346 46.3353 45.9079 45.0785 45.9079 42.102C45.9079 40.3822 45.2764 39.1254 37.0041 38.2655C30.1211 37.5379 25.8271 35.9504 25.8271 30.1957C25.8271 24.8379 30.1211 21.6628 37.3199 21.6628C45.4027 21.6628 49.381 24.5733 49.8861 30.9233C49.8861 31.1217 49.823 31.3202 49.6967 31.5186C49.5704 31.6509 49.381 31.7832 49.1915 31.7832H45.9079C45.5921 31.7832 45.2764 31.5186 45.2132 31.1879C44.4555 27.5498 42.4979 26.3592 37.3199 26.3592C31.5104 26.3592 30.8157 28.4759 30.8157 30.0634C30.8157 31.9816 31.6366 32.5769 39.4669 33.6353C47.234 34.6936 50.8965 36.215 50.8965 41.9035C50.8333 47.7244 46.2867 51.0317 38.2671 51.0317Z" fill="black"/>
</svg>
