<svg width="36" height="36" viewBox="0 0 36 36" fill="none" xmlns="http://www.w3.org/2000/svg">
<path d="M31.1343 8.09297L27.3902 4.35234C27.1261 4.08707 26.8121 3.87659 26.4664 3.733C26.1207 3.58941 25.7501 3.51554 25.3757 3.51563C24.6128 3.51563 23.8956 3.81445 23.3578 4.35234L19.3288 8.38125C19.0636 8.64537 18.8531 8.95929 18.7095 9.305C18.5659 9.6507 18.492 10.0214 18.4921 10.3957C18.4921 11.1586 18.791 11.8758 19.3288 12.4137L22.2749 15.3598C21.5853 16.8798 20.6265 18.2626 19.4449 19.4414C18.2661 20.626 16.8835 21.5882 15.3632 22.282L12.4171 19.3359C12.153 19.0707 11.8391 18.8602 11.4934 18.7166C11.1477 18.573 10.777 18.4991 10.4027 18.4992C9.63978 18.4992 8.9226 18.798 8.38471 19.3359L4.35228 23.3613C4.08668 23.6259 3.87602 23.9404 3.73243 24.2868C3.58883 24.6331 3.51513 25.0044 3.51557 25.3793C3.51557 26.1422 3.81439 26.8594 4.35228 27.3973L8.08939 31.1344C8.94721 31.9957 10.132 32.4844 11.3484 32.4844C11.605 32.4844 11.8511 32.4633 12.0937 32.4211C16.8328 31.6406 21.5331 29.1199 25.3265 25.3301C29.1163 21.5438 31.6335 16.8469 32.4245 12.0938C32.6636 10.6418 32.182 9.14766 31.1343 8.09297Z" fill="black"/>
</svg>
