<svg width="79" height="79" viewBox="0 0 79 79" fill="none" xmlns="http://www.w3.org/2000/svg">
<path d="M64.527 27.3414C63.6938 27.0637 62.8605 26.8014 62.0273 26.5545C62.1662 25.9836 62.2896 25.4127 62.4131 24.8418C64.3109 15.6457 63.0611 8.25491 58.8488 5.81702C54.7908 3.48713 48.1715 5.90959 41.475 11.742C40.8115 12.3129 40.1635 12.9147 39.5463 13.5164C39.1297 13.1153 38.6977 12.7141 38.2656 12.3283C31.2451 6.09475 24.2092 3.4717 19.9969 5.92502C15.9543 8.27034 14.7508 15.2291 16.448 23.9315C16.6178 24.7955 16.8029 25.6442 17.0189 26.5082C16.0314 26.786 15.0594 27.0946 14.149 27.4186C5.90957 30.2731 0 34.7785 0 39.4383C0 44.2524 6.29531 49.0819 14.8588 52.0135C15.5531 52.2449 16.2475 52.4764 16.9572 52.677C16.7258 53.6028 16.5252 54.5131 16.34 55.4543C14.7199 64.0178 15.9852 70.8069 20.0277 73.1367C24.1938 75.5438 31.1988 73.075 38.0187 67.1037C38.5588 66.6254 39.0988 66.1317 39.6389 65.6071C40.3178 66.2705 41.0275 66.9031 41.7373 67.5203C48.3412 73.1985 54.868 75.4975 58.8951 73.1676C63.0611 70.7606 64.4189 63.4623 62.66 54.5748C62.5211 53.8959 62.3668 53.2016 62.1971 52.4918C62.6908 52.353 63.1691 52.1987 63.6475 52.0444C72.5504 49.0973 79 44.3295 79 39.4383C79 34.7631 72.9207 30.2268 64.527 27.3414V27.3414ZM43.6506 14.2416C49.3904 9.24241 54.7445 7.28284 57.1824 8.68694C59.79 10.1836 60.793 16.2321 59.1574 24.1783C59.0494 24.703 58.9414 25.2121 58.8025 25.7213C55.3771 24.9498 51.9055 24.3944 48.4184 24.0858C46.4125 21.2158 44.2215 18.4694 41.8453 15.8926C42.4471 15.3217 43.0334 14.7817 43.6506 14.2416V14.2416ZM23.592 43.4192C24.3018 44.777 25.027 46.1194 25.7984 47.4463C26.5854 48.7887 27.3877 50.1311 28.2363 51.4426C25.8293 51.1803 23.4377 50.7946 21.077 50.2854C21.7559 48.0635 22.6045 45.7645 23.592 43.4192V43.4192ZM23.592 35.6117C22.6199 33.3127 21.8021 31.06 21.1232 28.8844C23.3451 28.3906 25.7059 27.9895 28.1592 27.6809C27.3414 28.9615 26.5391 30.2731 25.783 31.6C25.027 32.9115 24.2863 34.2539 23.592 35.6117ZM25.351 39.5155C26.3693 37.3862 27.4803 35.3031 28.6529 33.251C29.8256 31.1989 31.0908 29.2084 32.4178 27.2489C34.7322 27.0791 37.093 26.9865 39.5 26.9865C41.907 26.9865 44.2832 27.0791 46.5822 27.2489C47.8937 29.193 49.1436 31.1834 50.3316 33.2201C51.5197 35.2569 52.6307 37.3399 53.6799 39.4537C52.6461 41.583 51.5352 43.6815 50.3471 45.749C49.1744 47.8012 47.9246 49.7916 46.6131 51.7666C44.3141 51.9364 41.9225 52.0135 39.5 52.0135C37.0775 52.0135 34.7322 51.9364 32.4641 51.7975C31.1217 49.8379 29.8564 47.8321 28.6684 45.7799C27.4803 43.7278 26.3848 41.6448 25.351 39.5155ZM53.217 47.4155C54.0039 46.0576 54.7445 44.6844 55.4697 43.2957C56.4572 45.533 57.3213 47.8012 58.0773 50.1311C55.6857 50.6711 53.2633 51.0877 50.8254 51.3655C51.6586 50.0694 52.4455 48.7424 53.217 47.4155ZM55.4389 35.6117C54.7137 34.2539 53.973 32.8961 53.2016 31.5692C52.4455 30.2576 51.6586 28.9615 50.8408 27.6809C53.325 27.9895 55.7012 28.4061 57.923 28.9153C57.2133 31.1988 56.3801 33.4207 55.4389 35.6117V35.6117ZM39.5309 18.2533C41.151 20.0123 42.6785 21.8639 44.098 23.7772C41.043 23.6383 37.9725 23.6383 34.9174 23.7772C36.4295 21.7867 37.9879 19.9352 39.5309 18.2533ZM21.6324 8.79495C24.2246 7.28284 29.9799 9.44299 36.0438 14.8125C36.4295 15.152 36.8152 15.5223 37.2164 15.8926C34.8248 18.4694 32.6184 21.2158 30.5971 24.0858C27.11 24.3944 23.6537 24.9344 20.2283 25.6905C20.0277 24.9035 19.858 24.1012 19.6883 23.2989C18.2379 15.8309 19.1945 10.199 21.6324 8.79495V8.79495ZM17.8521 49.4676C17.2041 49.2824 16.5715 49.0819 15.9389 48.8658C12.6523 47.8321 8.91836 46.1965 6.21816 44.0518C4.65977 42.9717 3.61055 41.3053 3.31738 39.4383C3.31738 36.6147 8.19316 33.0041 15.2291 30.5508C16.1086 30.2422 17.0035 29.9645 17.8984 29.7022C18.9477 33.0504 20.2129 36.3369 21.6787 39.5155C20.1975 42.7403 18.9168 46.0731 17.8521 49.4676V49.4676ZM35.8432 64.5887C33.2973 66.9186 30.3502 68.7701 27.1408 70.0354C25.4281 70.8531 23.4531 70.9303 21.6941 70.236C19.2408 68.8164 18.2225 63.3698 19.6111 56.0406C19.7809 55.1766 19.966 54.3125 20.182 53.4639C23.6383 54.2045 27.1254 54.7137 30.6588 54.976C32.6955 57.8613 34.9328 60.6233 37.3244 63.2155C36.8307 63.6938 36.3369 64.1567 35.8432 64.5887ZM39.6234 60.8393C38.0496 59.142 36.4758 57.2596 34.9482 55.2383C36.4295 55.3 37.957 55.3309 39.5 55.3309C41.0893 55.3309 42.6477 55.3 44.1906 55.2229C42.7711 57.1824 41.2436 59.0494 39.6234 60.8393V60.8393ZM59.79 65.4682C59.6512 67.3506 58.7254 69.1096 57.2441 70.2977C54.7908 71.7172 49.5602 69.8656 43.9129 65.0207C43.2648 64.4653 42.6168 63.8635 41.9533 63.2463C44.3141 60.6387 46.4896 57.8768 48.4646 54.976C51.998 54.6828 55.516 54.1428 58.9877 53.3559C59.142 53.9885 59.2809 54.6211 59.4043 55.2383C60.1604 58.5711 60.2838 62.0428 59.79 65.4682V65.4682ZM62.5982 48.8813C62.1662 49.0201 61.7342 49.159 61.2867 49.2824C60.2066 45.9188 58.8797 42.6323 57.3522 39.4383C58.8334 36.2906 60.0832 33.0504 61.1324 29.733C61.9348 29.9645 62.7063 30.2113 63.4469 30.4582C70.6371 32.927 75.6826 36.5992 75.6826 39.4074C75.6826 42.4317 70.2977 46.3354 62.5982 48.8813ZM39.5 32.4332C43.4037 32.4332 46.5668 35.5963 46.5668 39.5C46.5668 43.4037 43.4037 46.5668 39.5 46.5668C35.5963 46.5668 32.4332 43.4037 32.4332 39.5C32.4332 35.5963 35.5963 32.4332 39.5 32.4332Z" fill="black"/>
</svg>
