<svg width="59" height="55" viewBox="0 0 59 55" fill="none" xmlns="http://www.w3.org/2000/svg">
<path d="M40.8808 38.2594C43.0581 38.0391 44.7098 36.2033 44.6348 34.0002C44.5597 31.7972 42.6827 30.0348 40.4303 30.0348H40.2801C37.9526 30.1082 36.1507 32.0175 36.2258 34.294C36.3009 35.3955 36.7514 36.3501 37.4271 37.011C34.8744 41.9312 30.9702 45.5295 25.114 48.5403C21.1347 50.5964 17.0053 51.3308 12.8759 50.8168C9.49733 50.3761 6.86954 48.9075 5.21778 46.4841C2.81522 42.8858 2.58998 38.9938 4.61714 35.1017C6.04366 32.3112 8.29606 30.2551 9.72258 29.227C9.42226 28.2723 8.97178 26.6568 8.74654 25.4818C-2.14006 33.1924 -1.01386 43.6202 2.28966 48.5403C4.7673 52.212 9.79766 54.4885 15.3536 54.4885C16.8552 54.4885 18.3568 54.3416 19.8584 53.9744C29.4686 52.1386 36.7514 46.5575 40.8808 38.2594ZM54.0948 29.1535C48.3888 22.6179 39.9798 19.0196 30.3696 19.0196H29.1683C28.4926 17.6977 27.066 16.8165 25.4894 16.8165H25.3392C23.0117 16.89 21.2098 18.7993 21.2849 21.0757C21.36 23.2788 23.237 25.0412 25.4894 25.0412H25.6395C27.2913 24.9678 28.7178 23.9397 29.3184 22.5444H30.6699C36.376 22.5444 41.7817 24.16 46.6619 27.3177C50.4159 29.741 53.1188 32.8987 54.6204 36.7173C55.8968 39.8016 55.8217 42.8124 54.4702 45.3826C52.368 49.2746 48.8392 51.4042 44.1843 51.4042C41.1811 51.4042 38.328 50.523 36.8265 49.8621C36.0006 50.5964 34.499 51.7714 33.4478 52.5057C36.6763 53.9744 39.9798 54.7822 43.1332 54.7822C50.3408 54.7822 55.6715 50.8902 57.6987 46.9981C59.876 42.7389 59.7258 35.3955 54.0948 29.1535ZM15.9542 39.5078C16.0293 41.7109 17.9063 43.4733 20.1587 43.4733H20.3089C22.6363 43.3999 24.4383 41.4906 24.3632 39.2141C24.2881 37.011 22.4111 35.2486 20.1587 35.2486H20.0085C19.8584 35.2486 19.6331 35.2486 19.483 35.322C16.4047 30.3285 15.1283 24.8943 15.5788 19.0196C15.8791 14.6135 17.3807 10.7949 20.0085 7.6372C22.1859 4.92012 26.3903 3.5983 29.2434 3.52486C37.2018 3.37799 40.5804 13.0714 40.8057 16.9634C41.7817 17.1837 43.4335 17.6977 44.5597 18.0649C43.6587 6.16851 36.1507 0 28.9431 0C22.1859 0 15.9542 4.77325 13.4766 11.823C10.0229 21.2226 12.2753 30.2551 16.4798 37.3782C16.1044 37.8923 15.8791 38.7 15.9542 39.5078Z" fill="black"/>
</svg>
