<svg width="47" height="53" viewBox="0 0 47 53" fill="none" xmlns="http://www.w3.org/2000/svg">
<path d="M36.8079 25.0106L13.1611 4.18329C13.0993 4.12844 13.025 4.09435 12.9468 4.08494C12.8686 4.07553 12.7896 4.09118 12.719 4.13009C12.6483 4.16901 12.5888 4.22961 12.5473 4.30494C12.5058 4.38027 12.484 4.46727 12.4844 4.55595V9.12838C12.4844 9.41823 12.605 9.69624 12.8044 9.8737L31.6883 26.5013L12.8044 43.1288C12.5998 43.3063 12.4844 43.5843 12.4844 43.8741V48.4466C12.4844 48.8429 12.8883 49.0618 13.1611 48.8192L36.8079 27.9919C37.0089 27.8151 37.1715 27.589 37.2833 27.3307C37.3952 27.0724 37.4533 26.7887 37.4533 26.5013C37.4533 26.2138 37.3952 25.9302 37.2833 25.6719C37.1715 25.4136 37.0089 25.1874 36.8079 25.0106Z" fill="black"/>
</svg>
