<svg width="101" height="66" viewBox="0 0 101 66" fill="none" xmlns="http://www.w3.org/2000/svg">
<path d="M86.9321 37.915C83.4052 37.9323 80.3512 38.6712 77.7898 39.7714C76.8441 38.1386 75.8983 36.7119 75.7409 35.6464C75.5636 34.4089 75.3468 33.6525 75.5636 32.1745C75.7801 30.6962 76.7653 28.5994 76.7653 28.4275C76.7454 28.2728 76.5483 27.5165 74.5191 27.4994C72.4899 27.4822 70.7361 27.8431 70.5391 28.3072C70.342 28.7712 69.948 29.8369 69.6918 30.9369C69.3372 32.5525 65.633 38.2759 63.5247 41.2837C62.8351 40.115 62.244 39.0837 62.1256 38.2586C61.9485 37.0212 61.7315 36.2648 61.9485 34.7869C62.1652 33.3086 63.1504 31.2119 63.1504 31.04C63.1307 30.8853 62.9336 30.129 60.9044 30.1119C58.8748 30.0947 57.1214 30.4556 56.9244 30.9197C56.7273 31.3837 56.5106 32.4837 56.0771 33.5494C55.6632 34.615 50.7374 44.1712 49.4567 46.6634C48.8065 47.9353 48.2353 48.9494 47.8213 49.6369C47.4076 50.3244 47.8016 49.6884 47.7622 49.7572C47.4076 50.3415 47.2105 50.6681 47.2105 50.6681V50.6855C46.9347 51.1152 46.6391 51.5275 46.501 51.5275C46.4025 51.5275 46.2055 50.3759 46.5404 48.7948C47.2694 45.4775 49.0427 40.3042 49.0232 40.1152C49.0232 40.0292 49.358 39.1181 47.8802 38.6542C46.4419 38.1902 45.9298 38.9636 45.8114 38.9636C45.6932 38.9636 45.5947 39.2386 45.5947 39.2386C45.5947 39.2386 47.1906 33.4122 42.5407 33.4122C39.6246 33.4122 35.6052 36.1794 33.6151 38.706C32.3541 39.3075 29.6745 40.5792 26.8373 41.9372C25.7536 42.4528 24.6305 43.0028 23.5665 43.5013L23.35 43.2947C17.7149 38.0525 7.29192 34.34 7.72539 27.2931C7.88302 24.7322 8.90758 17.9775 27.744 9.79623C43.1716 3.09311 55.5255 4.93217 57.6729 9.02279C60.7269 14.8665 51.0723 25.729 35.0342 27.2931C28.9262 27.8947 25.7144 25.8322 24.9067 25.0587C24.0595 24.2509 23.9413 24.2165 23.626 24.3712C23.1138 24.6119 23.429 25.3337 23.626 25.7634C24.0989 26.8462 26.0692 28.7712 29.4188 29.7337C32.3543 30.5759 39.5265 31.04 48.1959 28.1181C57.9095 24.8353 65.4953 15.7259 63.2688 8.11186C61.0029 0.360294 46.265 -2.18346 32.3348 2.13061C24.0396 4.70873 15.055 8.73061 8.59233 14.0072C0.908099 20.2634 -0.313497 25.729 0.198785 27.9978C1.99197 36.0931 14.7791 41.3697 19.9019 45.2712C19.6458 45.3914 19.4094 45.5117 19.1926 45.615C16.6312 46.7148 6.87816 51.1665 4.43496 55.8758C1.67652 61.2039 4.86843 65.0369 6.99638 65.5525C13.5772 67.1509 20.3157 64.2806 23.9608 59.5541C27.586 54.8275 27.1527 48.6915 25.4779 45.89L25.4186 45.7869L27.4284 44.7556C28.729 44.0853 30.0097 43.4665 31.1325 42.9336C30.5022 44.4289 30.0489 46.1992 29.8126 48.7773C29.5368 51.8025 30.9554 55.7211 32.8272 57.2679C33.6547 57.9381 34.6399 57.9554 35.2507 57.9554C37.4181 57.9554 38.4032 56.3912 39.4869 54.5179C40.8267 52.232 42.0089 49.5851 42.0089 49.5851C42.0089 49.5851 40.5312 56.7523 44.5703 56.7523C46.048 56.7523 47.5258 55.0851 48.1957 54.2257V54.2429C48.1957 54.2429 48.2351 54.1914 48.3139 54.0711C48.3966 53.9644 48.4754 53.8556 48.5503 53.7447V53.7103C49.1414 52.8166 50.4615 50.7712 52.4319 47.3853C54.9734 43.0197 57.4168 37.554 57.4168 37.554C57.4168 37.554 57.6532 38.8947 58.3822 41.0947C58.8155 42.4011 59.7612 43.8275 60.4902 45.2197C59.8992 45.9416 59.5445 46.3542 59.5445 46.3542L59.5642 46.3714C59.0915 46.9214 58.5593 47.506 58.0079 48.0902C55.9981 50.187 53.5943 52.5763 53.2791 53.2638C52.9047 54.0714 52.9835 54.673 53.7126 55.1544C54.2445 55.4981 55.1903 55.5667 56.1952 55.4981C58.0079 55.3948 59.2689 54.9997 59.8994 54.7589C60.8845 54.4495 62.0076 53.9855 63.0913 53.298C65.0616 52.0263 66.2635 50.2216 66.1453 47.8153C66.0862 46.4919 65.5936 45.1856 64.9828 43.9481C65.1601 43.7247 65.3376 43.5011 65.5148 43.2606C68.6279 39.2902 71.0316 34.9247 71.0316 34.9247C71.0316 34.9247 71.2681 36.2653 71.9971 38.4653C72.3713 39.5825 73.1202 40.803 73.7901 42.0061C70.874 44.0858 69.0416 46.4921 68.4111 48.0733C67.2486 50.9952 68.155 52.3186 69.8692 52.628C70.6374 52.7655 71.741 52.4561 72.5683 52.1468C73.5929 51.8546 74.8342 51.356 75.9771 50.6171C77.9474 49.3452 79.839 47.5749 79.7404 45.1858C79.6813 44.0858 79.3464 43.003 78.8932 41.9717C81.3758 41.078 84.5872 40.5624 88.666 40.9921C97.4339 41.8858 99.1678 46.6639 98.833 48.6577C98.498 50.6516 96.6656 51.7514 96.0546 52.0952C95.4439 52.4218 95.2468 52.5422 95.3059 52.7827C95.3847 53.1438 95.6606 53.1264 96.1926 53.0579C96.9216 52.9546 100.803 51.425 100.961 47.7471C101.197 43.0198 96.0546 37.8636 86.9321 37.915ZM19.3108 57.8009C16.4145 60.5681 12.3359 61.6165 10.6021 60.7228C8.73025 59.7775 9.45907 55.704 13.0255 52.765C15.1929 50.9775 18.0104 49.3275 19.8625 48.3134C20.2763 48.09 20.9068 47.7636 21.6555 47.3681C21.7737 47.2995 21.8526 47.265 21.8526 47.265C21.9905 47.1962 22.1481 47.1103 22.3057 47.0244C23.6258 51.2181 22.3648 54.8962 19.3108 57.8009ZM40.4917 45.2369C39.4869 47.3853 37.3589 52.9025 36.0782 52.5931C34.9747 52.3353 34.305 48.1587 35.8613 44.0337C36.6494 41.9539 38.3242 39.479 39.3094 38.5164C40.9055 36.9695 42.6392 36.4539 43.0729 37.0898C43.5851 37.915 41.1222 43.8962 40.4917 45.2369ZM57.9684 52.5244C57.535 52.7136 57.1409 52.8509 56.9636 52.748C56.8257 52.6792 57.1407 52.4214 57.1407 52.4214C57.1407 52.4214 59.3278 50.3761 60.1947 49.4308C60.6873 48.881 61.2784 48.245 61.9089 47.523V47.7292C61.9091 50.204 59.19 51.854 57.9684 52.5244ZM71.4452 49.8431C71.13 49.6369 71.1696 49.0009 72.2333 47.0072C72.6473 46.2165 73.5929 44.8931 75.2282 43.6384C75.4252 44.154 75.5437 44.6523 75.5238 45.1166C75.5043 48.2103 72.9823 49.3619 71.4452 49.8431Z" fill="black"/>
</svg>
