<svg width="36" height="36" viewBox="0 0 36 36" fill="none" xmlns="http://www.w3.org/2000/svg">
<path d="M34.7136 7.64722C33.4841 8.17758 32.1462 8.55928 30.7681 8.70794C32.1989 7.8579 33.2704 6.51499 33.7815 4.93115C32.4388 5.72986 30.968 6.28993 29.4342 6.58651C28.7931 5.90117 28.0177 5.3552 27.1564 4.98261C26.2951 4.61003 25.3663 4.41881 24.4279 4.42088C20.631 4.42088 17.5775 7.49856 17.5775 11.2753C17.5775 11.8057 17.6417 12.3361 17.7462 12.8463C12.0609 12.549 6.9904 9.83294 3.61942 5.67446C3.00519 6.72358 2.68331 7.91813 2.68727 9.13383C2.68727 11.5124 3.89665 13.6097 5.74085 14.8432C4.65403 14.8004 3.59267 14.5017 2.64308 13.9713V14.0557C2.64308 17.3865 4.99754 20.1468 8.13549 20.7816C7.54631 20.9346 6.94021 21.0129 6.33147 21.0146C5.88549 21.0146 5.46361 20.9704 5.03772 20.9102C5.90558 23.6262 8.43281 25.599 11.4422 25.6633C9.08772 27.5075 6.13861 28.5923 2.93638 28.5923C2.36183 28.5923 1.83147 28.5722 1.28102 28.5079C4.31853 30.4566 7.92254 31.5816 11.8038 31.5816C24.4038 31.5816 31.2984 21.1432 31.2984 12.0829C31.2984 11.7856 31.2984 11.4883 31.2783 11.191C32.6123 10.2146 33.7815 9.00526 34.7136 7.64722Z" fill="black"/>
</svg>
